<?xml version="1.0" encoding="UTF-8"?>
<svg width="772px" height="412px" viewBox="0 0 772 412" version="1.1" xmlns="http://www.w3.org/2000/svg" xmlns:xlink="http://www.w3.org/1999/xlink">
    <title>epicast-flow</title>
    <g id="EpiCast" stroke="none" stroke-width="1" fill="none" fill-rule="evenodd">
        <g id="epicast-flow">
            <g id="Receiving" transform="translate(410.000000, 245.000000)">
                <rect id="Rectangle" fill="#15A9E9" fill-rule="nonzero" x="0" y="0" width="177" height="100" rx="10"></rect>
                <text id="CDC-Analytics" font-family="SegoeUI, Segoe UI" font-size="14" font-weight="normal" fill="#000000">
                    <tspan x="88" y="45">CDC </tspan>
                    <tspan x="88" y="64">Analytics</tspan>
                </text>
                <g id="building" transform="translate(17.000000, 15.000000)" fill-rule="nonzero">
                    <polygon id="Path" fill="#DBD8DD" points="3 9 48 9 48 66 3 66"></polygon>
                    <polygon id="Path" fill="#EEEFEE" points="13 0 38 0 38 66 13 66"></polygon>
                    <polygon id="Path" fill="#69B0EE" points="6 12 11 12 11 20 6 20"></polygon>
                    <polygon id="Path" fill="#69B0EE" points="6 22 11 22 11 30 6 30"></polygon>
                    <polygon id="Path" fill="#69B0EE" points="6 34 11 34 11 42 6 42"></polygon>
                    <polygon id="Path" fill="#69B0EE" points="6 45 11 45 11 53 6 53"></polygon>
                    <polygon id="Path" fill="#69B0EE" points="6 56 11 56 11 64 6 64"></polygon>
                    <polygon id="Path" fill="#69B0EE" points="40 12 45 12 45 20 40 20"></polygon>
                    <polygon id="Path" fill="#69B0EE" points="40 22 45 22 45 30 40 30"></polygon>
                    <polygon id="Path" fill="#69B0EE" points="40 34 45 34 45 42 40 42"></polygon>
                    <polygon id="Path" fill="#69B0EE" points="40 45 45 45 45 53 40 53"></polygon>
                    <polygon id="Path" fill="#69B0EE" points="40 56 45 56 45 64 40 64"></polygon>
                    <polygon id="Path" fill="#69B0EE" points="15 4 35 4 35 8 15 8"></polygon>
                    <polygon id="Path" fill="#69B0EE" points="15 11 35 11 35 15 15 15"></polygon>
                    <polygon id="Path" fill="#69B0EE" points="15 19 35 19 35 23 15 23"></polygon>
                    <polygon id="Path" fill="#69B0EE" points="15 26 35 26 35 30 15 30"></polygon>
                    <polygon id="Path" fill="#69B0EE" points="15 34 35 34 35 38 15 38"></polygon>
                    <polygon id="Path" fill="#69B0EE" points="15 42 35 42 35 46 15 46"></polygon>
                    <polygon id="Path" fill="#575B6D" points="16 49 34 49 34 66 16 66"></polygon>
                    <polygon id="Path" fill="#EEEFEE" opacity="0.5" points="40.2452357 64 40 64 42.7542628 56 43 56"></polygon>
                    <polygon id="Path" fill="#EEEFEE" opacity="0.5" points="42.3651631 64 41 64 43.6353167 56 45 56"></polygon>
                    <polygon id="Path" fill="#EEEFEE" opacity="0.5" points="40.2452357 53 40 53 42.7542628 45 43 45"></polygon>
                    <polygon id="Path" fill="#EEEFEE" opacity="0.5" points="42.3651631 53 41 53 43.6353167 45 45 45"></polygon>
                    <polygon id="Path" fill="#EEEFEE" opacity="0.5" points="40.2452357 42 40 42 42.7542628 34 43 34"></polygon>
                    <polygon id="Path" fill="#EEEFEE" opacity="0.5" points="42.3651631 42 41 42 43.6353167 34 45 34"></polygon>
                    <polygon id="Path" fill="#EEEFEE" opacity="0.5" points="40.2452357 30 40 30 42.7542628 22 43 22"></polygon>
                    <polygon id="Path" fill="#EEEFEE" opacity="0.5" points="42.3651631 30 41 30 43.6353167 22 45 22"></polygon>
                    <polygon id="Path" fill="#EEEFEE" opacity="0.5" points="40.2452357 20 40 20 42.7542628 12 43 12"></polygon>
                    <polygon id="Path" fill="#EEEFEE" opacity="0.5" points="42.3651631 20 41 20 43.6353167 12 45 12"></polygon>
                    <polygon id="Path" fill="#EEEFEE" opacity="0.5" points="25 4 22.7113545 8 22 8 24.2752237 4"></polygon>
                    <polygon id="Path" fill="#EEEFEE" opacity="0.5" points="30 4 28.0588468 8 25 8 26.9415482 4"></polygon>
                    <polygon id="Path" fill="#EEEFEE" opacity="0.5" points="25 11 22.7113545 15 22 15 24.2752237 11"></polygon>
                    <polygon id="Path" fill="#EEEFEE" opacity="0.5" points="30 11 28.0588468 15 25 15 26.9415482 11"></polygon>
                    <polygon id="Path" fill="#EEEFEE" opacity="0.5" points="25 19 22.7113545 23 22 23 24.2752237 19"></polygon>
                    <polygon id="Path" fill="#EEEFEE" opacity="0.5" points="30 19 28.0588468 23 25 23 26.9415482 19"></polygon>
                    <polygon id="Path" fill="#EEEFEE" opacity="0.5" points="25 26 22.7113545 30 22 30 24.2752237 26"></polygon>
                    <polygon id="Path" fill="#EEEFEE" opacity="0.5" points="30 26 28.0588468 30 25 30 26.9415482 26"></polygon>
                    <polygon id="Path" fill="#EEEFEE" opacity="0.5" points="25 34 22.7113545 38 22 38 24.2752237 34"></polygon>
                    <polygon id="Path" fill="#EEEFEE" opacity="0.5" points="30 34 28.0588468 38 25 38 26.9415482 34"></polygon>
                    <polygon id="Path" fill="#EEEFEE" opacity="0.5" points="25 42 22.7113545 46 22 46 24.2752237 42"></polygon>
                    <polygon id="Path" fill="#EEEFEE" opacity="0.5" points="30 42 28.0588468 46 25 46 26.9415482 42"></polygon>
                    <polygon id="Path" fill="#EEEFEE" opacity="0.5" points="5.24477512 64 5 64 7.7542217 56 8 56"></polygon>
                    <polygon id="Path" fill="#EEEFEE" opacity="0.5" points="7.3649994 64 6 64 8.6350006 56 10 56"></polygon>
                    <polygon id="Path" fill="#EEEFEE" opacity="0.5" points="5.24477512 53 5 53 7.7542217 45 8 45"></polygon>
                    <polygon id="Path" fill="#EEEFEE" opacity="0.5" points="7.3649994 53 6 53 8.6350006 45 10 45"></polygon>
                    <polygon id="Path" fill="#EEEFEE" opacity="0.5" points="5.24477512 42 5 42 7.7542217 34 8 34"></polygon>
                    <polygon id="Path" fill="#EEEFEE" opacity="0.5" points="7.3649994 42 6 42 8.6350006 34 10 34"></polygon>
                    <polygon id="Path" fill="#EEEFEE" opacity="0.5" points="5.24477512 30 5 30 7.7542217 22 8 22"></polygon>
                    <polygon id="Path" fill="#EEEFEE" opacity="0.5" points="7.3649994 30 6 30 8.6350006 22 10 22"></polygon>
                    <polygon id="Path" fill="#EEEFEE" opacity="0.5" points="5.24477512 20 5 20 7.7542217 12 8 12"></polygon>
                    <polygon id="Path" fill="#EEEFEE" opacity="0.5" points="7.3649994 20 6 20 8.6350006 12 10 12"></polygon>
                    <polygon id="Path" fill="#BBBBCD" points="0 65 50 65 50 69 0 69"></polygon>
                    <polygon id="Path" fill="#EEEFEE" points="24 48 26 48 26 65 24 65"></polygon>
                </g>
            </g>
            <g id="Arizona" transform="translate(0.000000, 312.000000)">
                <rect id="Rectangle" fill="#15A9E9" fill-rule="nonzero" x="0" y="0" width="177" height="100" rx="10"></rect>
                <text id="Arizona-PHD" font-family="SegoeUI, Segoe UI" font-size="14" font-weight="normal" fill="#000000">
                    <tspan x="90" y="46">Arizona</tspan>
                    <tspan x="90" y="65">Cases</tspan>
                </text>
                <g id="School" transform="translate(22.000000, 23.000000)" fill-rule="nonzero">
                    <polygon id="Path" fill="#E6BE94" points="54 53 3 53 3 28.4541847 13.5518787 28.4541847 28.4998431 13 43.4486591 28.4541847 54 28.4541847"></polygon>
                    <polygon id="Path" fill="#996459" points="33 42 23 42 23 53 33 53"></polygon>
                    <path d="M32.7918702,38 L23.2081298,38 C23.0930213,38 23,38.1120407 23,38.2502728 L23,42 L33,42 L33,38.2502728 C33,38.1120407 32.9069787,38 32.7918702,38 Z" id="Path" fill="#4BB9EC"></path>
                    <path d="M36.5020696,5.50002122 L37.8599713,3.36043558 C38.030293,3.09211731 38.0464332,2.7469366 37.901596,2.46236305 C37.7567588,2.17774706 37.4743051,2 37.1667916,2 L28.8333447,2 C28.3729239,2 28,2.3913576 28,2.87502653 L28,8.12501592 C28,8.6086424 28.3729239,9 28.8333447,9 L37.1667916,9 C37.4743051,9 37.7567588,8.82225294 37.901596,8.53767939 C38.0464332,8.2530634 38.030293,7.90788269 37.860396,7.63960687 L36.5020696,5.50002122 Z" id="Path" fill="#FF4F19"></path>
                    <path d="M28,14 C27.4475025,14 27,13.5825909 27,13.0669413 L27,0.933330315 C27,0.417454348 27.4475025,0 28,0 C28.5530071,0 29,0.417454348 29,0.933330315 L29,13.0669413 C29,13.5825909 28.5530071,14 28,14 Z" id="Path" fill="#5C546A"></path>
                    <path d="M32.0655331,16.5699787 C32.1979041,16.2247677 32.5107016,16 32.8575748,16 L49.1427028,16 C49.4358413,16 49.7088838,16.1616358 49.8661562,16.427596 L55.8661012,26.5810977 C56.0342954,26.866311 56.0443433,27.2258498 55.8944976,27.5213611 C55.7437782,27.8164248 55.4558822,28 55.1426478,28 L42.2860597,28 C42.0580147,28 41.8404544,27.9028394 41.679687,27.7295623 L32.2516389,17.5756129 C32.0061191,17.3118913 31.9322884,16.9151897 32.0655331,16.5699787 Z" id="Path" fill="#FF4F19"></path>
                    <path d="M23.9346605,16.5699787 C23.8022885,16.22432 23.4890518,16 23.1426129,16 L6.85709981,16 C6.56417761,16 6.29126412,16.1616358 6.13390308,16.427596 L0.133912828,26.5810977 C-0.0342826177,26.866311 -0.0443306573,27.2258498 0.10542882,27.5213611 C0.256193101,27.8164248 0.544091279,28 0.857153243,28 L13.7141878,28 C13.9418852,28 14.1594907,27.9028394 14.320172,27.7295623 L23.7485534,17.5756129 C23.994075,17.3118913 24.0674694,16.9151897 23.9346605,16.5699787 Z" id="Path" fill="#FF4F19"></path>
                    <path d="M43.1380153,29 C42.9175229,29 42.6970305,28.9127041 42.5288063,28.7376781 L28.4998682,14.1614411 L14.4711059,28.7376781 C14.1344817,29.0872959 13.5890924,29.0872959 13.2524682,28.7376781 C12.9158439,28.3880604 12.9158439,27.8212887 13.2524682,27.471671 L27.8906592,12.2622133 C28.2271077,11.9125956 28.7726287,11.9125956 29.1095165,12.2622133 L43.7476636,27.471671 C44.0841121,27.8212887 44.0841121,28.3880604 43.7476636,28.7376781 C43.5790001,28.9122698 43.3585077,29 43.1380153,29 Z" id="Path" fill="#E3001E"></path>
                    <path d="M28,34 C30.7616378,34 33,31.5375723 33,28.4997777 C33,25.4624277 30.7616378,23 28,23 C25.238787,23 23,25.4624277 23,28.4997777 C23,31.5375723 25.238787,34 28,34 Z" id="Path" fill="#FFEBB7"></path>
                    <path d="M28.2,24 C27.758002,24 27.4,24.4472255 27.4,25.000194 L27.4,27.000097 L25.8,27.000097 C25.358002,27.000097 25,27.4473225 25,27.999806 C25,28.5527745 25.358002,29 25.8,29 L28.2,29 C28.6424057,29 29,28.5527745 29,27.999806 L29,25.000194 C29,24.4472255 28.6424057,24 28.2,24 Z" id="Path" fill="#5C546A"></path>
                    <path d="M41,34.1428868 C41,32.9591851 40.1045872,32 39,32 C37.8954128,32 37,32.9591851 37,34.1428868 C37,34.2896542 37.0142712,34.4330954 37.040367,34.5715474 L37,34.5715474 L37,38 L41,38 L41,34.5715474 L40.959633,34.5715474 C40.9861366,34.4330954 41,34.2896542 41,34.1428868 Z" id="Path" fill="#4BB9EC"></path>
                    <path d="M39,31 C37.3460026,31 36,32.3960658 36,34.111183 L36,38.1109674 C36,38.6024791 36.3835736,39 36.8571429,39 L41.1428571,39 C41.6164264,39 42,38.6024791 42,38.1109674 L42,34.111183 C42,32.3960658 40.6539974,31 39,31 Z M39,32.7780652 C39.7090433,32.7780652 40.2857143,33.3760711 40.2857143,34.111183 L40.2857143,34.5556993 L37.7142857,34.5556993 L37.7142857,34.111183 C37.7142857,33.3760711 38.2909567,32.7780652 39,32.7780652 Z M37.7142857,37.2223659 L37.7142857,36.3333333 L40.2857143,36.3333333 L40.2857143,37.2223659 L37.7142857,37.2223659 Z" id="Shape" fill="#7E5C62"></path>
                    <polygon id="Path" fill="#4BB9EC" points="19 43 15 43 15 48 19 48"></polygon>
                    <path d="M19.1428384,42 L14.8571616,42 C14.3833636,42 14,42.3913175 14,42.8751592 L14,48.1248408 C14,48.6086825 14.3833636,49 14.8571616,49 L19.1428384,49 C19.6168549,49 20,48.6086825 20,48.1248408 L20,42.8751592 C20,42.3913175 19.6168549,42 19.1428384,42 Z M18.2856768,43.7498939 L18.2856768,44.6250531 L15.7143232,44.6250531 L15.7143232,43.7498939 L18.2856768,43.7498939 Z M15.7143232,47.2501061 L15.7143232,46.3749469 L18.2856768,46.3749469 L18.2856768,47.2501061 L15.7143232,47.2501061 Z" id="Shape" fill="#7E5C62"></path>
                    <polygon id="Path" fill="#4BB9EC" points="11 43 7 43 7 48 11 48"></polygon>
                    <path d="M11.1428509,42 L6.8571491,42 C6.38335797,42 6,42.3913175 6,42.8751592 L6,48.1248408 C6,48.6086825 6.38335797,49 6.8571491,49 L11.1428509,49 C11.616642,49 12,48.6086825 12,48.1248408 L12,42.8751592 C12,42.3913175 11.616642,42 11.1428509,42 Z M10.2857018,43.7498939 L10.2857018,44.6250531 L7.7142982,44.6250531 L7.7142982,43.7498939 L10.2857018,43.7498939 Z M7.7142982,47.2501061 L7.7142982,46.3749469 L10.2857018,46.3749469 L10.2857018,47.2501061 L7.7142982,47.2501061 Z" id="Shape" fill="#7E5C62"></path>
                    <polygon id="Path" fill="#4BB9EC" points="49 43 45 43 45 48 49 48"></polygon>
                    <path d="M49.1428571,42 L44.8571429,42 C44.3831367,42 44,42.3913175 44,42.8751592 L44,48.1248408 C44,48.6086825 44.3831367,49 44.8571429,49 L49.1428571,49 C49.6164264,49 50,48.6086825 50,48.1248408 L50,42.8751592 C50,42.3913175 49.6164264,42 49.1428571,42 Z M48.2857143,43.7498939 L48.2857143,44.6250531 L45.7142857,44.6250531 L45.7142857,43.7498939 L48.2857143,43.7498939 Z M45.7142857,47.2501061 L45.7142857,46.3749469 L48.2857143,46.3749469 L48.2857143,47.2501061 L45.7142857,47.2501061 Z" id="Shape" fill="#7E5C62"></path>
                    <polygon id="Path" fill="#4BB9EC" points="41 43 37 43 37 48 41 48"></polygon>
                    <path d="M41.1428571,42 L36.8571429,42 C36.3835736,42 36,42.3913175 36,42.8751592 L36,48.1248408 C36,48.6086825 36.3835736,49 36.8571429,49 L41.1428571,49 C41.6168633,49 42,48.6086825 42,48.1248408 L42,42.8751592 C42,42.3913175 41.6168633,42 41.1428571,42 Z M40.2857143,43.7498939 L40.2857143,44.6250531 L37.7142857,44.6250531 L37.7142857,43.7498939 L40.2857143,43.7498939 Z M37.7142857,47.2501061 L37.7142857,46.3749469 L40.2857143,46.3749469 L40.2857143,47.2501061 L37.7142857,47.2501061 Z" id="Shape" fill="#7E5C62"></path>
                    <path d="M49,34.1428868 C49,32.9591851 48.1045872,32 47,32 C45.8954128,32 45,32.9591851 45,34.1428868 C45,34.2896542 45.0138634,34.4330954 45.040367,34.5715474 L45,34.5715474 L45,38 L49,38 L49,34.5715474 L48.959633,34.5715474 C48.9857288,34.4330954 49,34.2896542 49,34.1428868 Z" id="Path" fill="#4BB9EC"></path>
                    <path d="M47,31 C45.3460026,31 44,32.3960658 44,34.111183 L44,38.1109674 C44,38.6024791 44.3835736,39 44.8571429,39 L49.1428571,39 C49.6168633,39 50,38.6024791 50,38.1109674 L50,34.111183 C50,32.3960658 48.6539974,31 47,31 Z M47,32.7780652 C47.7090433,32.7780652 48.2857143,33.3760711 48.2857143,34.111183 L48.2857143,34.5556993 L45.7142857,34.5556993 L45.7142857,34.111183 C45.7142857,33.3760711 46.2909567,32.7780652 47,32.7780652 Z M45.7142857,37.2223659 L45.7142857,36.3333333 L48.2857143,36.3333333 L48.2857143,37.2223659 L45.7142857,37.2223659 Z" id="Shape" fill="#7E5C62"></path>
                    <path d="M11,34.1428868 C11,32.9591851 10.1045872,32 9,32 C7.89541284,32 7,32.9591851 7,34.1428868 C7,34.2896542 7.01410805,34.4330954 7.0403262,34.5715474 L7,34.5715474 L7,38 L11,38 L11,34.5715474 L10.9597146,34.5715474 C10.9858919,34.4330954 11,34.2896542 11,34.1428868 Z" id="Path" fill="#4BB9EC"></path>
                    <path d="M9.00002184,31 C7.34592505,31 6,32.3960658 6,34.111183 L6,38.1109674 C6,38.6024791 6.38335797,39 6.8571491,39 L11.1428509,39 C11.616642,39 12,38.6024791 12,38.1109674 L12,34.111183 C12,32.3960658 10.654075,31 9.00002184,31 Z M9.00002184,32.7780652 C9.70898288,32.7780652 10.2857018,33.3760711 10.2857018,34.111183 L10.2857018,34.5556993 L7.7142982,34.5556993 L7.7142982,34.111183 C7.7142982,33.3760711 8.29106081,32.7780652 9.00002184,32.7780652 Z M7.7142982,37.2223659 L7.7142982,36.3333333 L10.2857018,36.3333333 L10.2857018,37.2223659 L7.7142982,37.2223659 Z" id="Shape" fill="#7E5C62"></path>
                    <path d="M19,34.1428868 C19,32.9591851 18.1045506,32 16.9999184,32 C15.8954494,32 15,32.9591851 15,34.1428868 C15,34.2896542 15.0141086,34.4330954 15.0402871,34.5715474 L15,34.5715474 L15,38 L19,38 L19,34.5715474 L18.9600391,34.5715474 C18.986136,34.4330954 19,34.2896542 19,34.1428868 Z" id="Path" fill="#4BB9EC"></path>
                    <path d="M16.9999782,31 C15.345925,31 14,32.3960658 14,34.111183 L14,38.1109674 C14,38.6024791 14.383358,39 14.8571491,39 L19.1428509,39 C19.6168605,39 20,38.6024791 20,38.1109674 L20,34.111183 C20,32.3960658 18.6539876,31 16.9999782,31 Z M16.9999782,32.7780652 C17.7090266,32.7780652 18.2857018,33.3760711 18.2857018,34.111183 L18.2857018,34.5556993 L15.7142982,34.5556993 L15.7142982,34.111183 C15.7142982,33.3760711 16.2909297,32.7780652 16.9999782,32.7780652 Z M15.7142982,37.2223659 L15.7142982,36.3333333 L18.2857018,36.3333333 L18.2857018,37.2223659 L15.7142982,37.2223659 Z" id="Shape" fill="#7E5C62"></path>
                    <path d="M28,35 C24.6915684,35 22,32.0840869 22,28.4997748 C22,24.9159131 24.6915684,22 28,22 C31.3084316,22 34,24.9159131 34,28.4997748 C34,32.0840869 31.3084316,35 28,35 Z M28,23.8570142 C25.6369594,23.8570142 23.7142857,25.9396806 23.7142857,28.4997748 C23.7142857,31.0603194 25.6369594,33.1429858 28,33.1429858 C30.3630406,33.1429858 32.2857143,31.0603194 32.2857143,28.4997748 C32.2857143,25.9396806 30.3630406,23.8570142 28,23.8570142 Z" id="Shape" fill="#7E5C62"></path>
                    <path d="M31.4285714,38 L24.5714286,38 C23.1537789,38 22,39.1960441 22,40.6667385 L22,53.1113746 C22,53.6024684 22.3835736,54 22.8571429,54 C23.331149,54 23.7142857,53.6024684 23.7142857,53.1113746 L23.7142857,43.3334771 L27.1192661,43.3334771 L27.1192661,53.1113746 L28.8335518,53.1113746 L28.8335518,43.3334771 L32.2857143,43.3334771 L32.2857143,53.1113746 C32.2857143,53.6024684 32.6692879,54 33.1428571,54 C33.6168633,54 34,53.6024684 34,53.1113746 L34,40.6667385 C34,39.1960441 32.8466579,38 31.4285714,38 Z M32.2857143,41.5553639 L23.7142857,41.5553639 L23.7142857,40.6667385 C23.7142857,40.1760759 24.0987331,39.777682 24.5714286,39.777682 L31.4285714,39.777682 C31.9017038,39.777682 32.2857143,40.1760759 32.2857143,40.6667385 L32.2857143,41.5553639 Z" id="Shape" fill="#7E5C62"></path>
                    <path d="M55.1249965,54 L0.875003484,54 C0.391343301,54 0,53.5527528 0,53.0002425 C0,52.4472472 0.391343301,52 0.875003484,52 L55.1249965,52 C55.6084337,52 56,52.4472472 56,53.0002425 C56,53.5527528 55.6084337,54 55.1249965,54 Z" id="Path" fill="#5C546A"></path>
                </g>
            </g>
            <g id="California" transform="translate(0.000000, 179.000000)">
                <rect id="Rectangle" fill="#15A9E9" fill-rule="nonzero" x="0" y="0" width="177" height="100" rx="10"></rect>
                <text id="California-Cases" font-family="SegoeUI, Segoe UI" font-size="14" font-weight="normal" fill="#000000">
                    <tspan x="90" y="46">California</tspan>
                    <tspan x="90" y="65">Cases</tspan>
                </text>
                <g id="School" transform="translate(22.000000, 23.000000)" fill-rule="nonzero">
                    <polygon id="Path" fill="#E6BE94" points="54 53 3 53 3 28.4541847 13.5518787 28.4541847 28.4998431 13 43.4486591 28.4541847 54 28.4541847"></polygon>
                    <polygon id="Path" fill="#996459" points="33 42 23 42 23 53 33 53"></polygon>
                    <path d="M32.7918702,38 L23.2081298,38 C23.0930213,38 23,38.1120407 23,38.2502728 L23,42 L33,42 L33,38.2502728 C33,38.1120407 32.9069787,38 32.7918702,38 Z" id="Path" fill="#4BB9EC"></path>
                    <path d="M36.5020696,5.50002122 L37.8599713,3.36043558 C38.030293,3.09211731 38.0464332,2.7469366 37.901596,2.46236305 C37.7567588,2.17774706 37.4743051,2 37.1667916,2 L28.8333447,2 C28.3729239,2 28,2.3913576 28,2.87502653 L28,8.12501592 C28,8.6086424 28.3729239,9 28.8333447,9 L37.1667916,9 C37.4743051,9 37.7567588,8.82225294 37.901596,8.53767939 C38.0464332,8.2530634 38.030293,7.90788269 37.860396,7.63960687 L36.5020696,5.50002122 Z" id="Path" fill="#FF4F19"></path>
                    <path d="M28,14 C27.4475025,14 27,13.5825909 27,13.0669413 L27,0.933330315 C27,0.417454348 27.4475025,0 28,0 C28.5530071,0 29,0.417454348 29,0.933330315 L29,13.0669413 C29,13.5825909 28.5530071,14 28,14 Z" id="Path" fill="#5C546A"></path>
                    <path d="M32.0655331,16.5699787 C32.1979041,16.2247677 32.5107016,16 32.8575748,16 L49.1427028,16 C49.4358413,16 49.7088838,16.1616358 49.8661562,16.427596 L55.8661012,26.5810977 C56.0342954,26.866311 56.0443433,27.2258498 55.8944976,27.5213611 C55.7437782,27.8164248 55.4558822,28 55.1426478,28 L42.2860597,28 C42.0580147,28 41.8404544,27.9028394 41.679687,27.7295623 L32.2516389,17.5756129 C32.0061191,17.3118913 31.9322884,16.9151897 32.0655331,16.5699787 Z" id="Path" fill="#FF4F19"></path>
                    <path d="M23.9346605,16.5699787 C23.8022885,16.22432 23.4890518,16 23.1426129,16 L6.85709981,16 C6.56417761,16 6.29126412,16.1616358 6.13390308,16.427596 L0.133912828,26.5810977 C-0.0342826177,26.866311 -0.0443306573,27.2258498 0.10542882,27.5213611 C0.256193101,27.8164248 0.544091279,28 0.857153243,28 L13.7141878,28 C13.9418852,28 14.1594907,27.9028394 14.320172,27.7295623 L23.7485534,17.5756129 C23.994075,17.3118913 24.0674694,16.9151897 23.9346605,16.5699787 Z" id="Path" fill="#FF4F19"></path>
                    <path d="M43.1380153,29 C42.9175229,29 42.6970305,28.9127041 42.5288063,28.7376781 L28.4998682,14.1614411 L14.4711059,28.7376781 C14.1344817,29.0872959 13.5890924,29.0872959 13.2524682,28.7376781 C12.9158439,28.3880604 12.9158439,27.8212887 13.2524682,27.471671 L27.8906592,12.2622133 C28.2271077,11.9125956 28.7726287,11.9125956 29.1095165,12.2622133 L43.7476636,27.471671 C44.0841121,27.8212887 44.0841121,28.3880604 43.7476636,28.7376781 C43.5790001,28.9122698 43.3585077,29 43.1380153,29 Z" id="Path" fill="#E3001E"></path>
                    <path d="M28,34 C30.7616378,34 33,31.5375723 33,28.4997777 C33,25.4624277 30.7616378,23 28,23 C25.238787,23 23,25.4624277 23,28.4997777 C23,31.5375723 25.238787,34 28,34 Z" id="Path" fill="#FFEBB7"></path>
                    <path d="M28.2,24 C27.758002,24 27.4,24.4472255 27.4,25.000194 L27.4,27.000097 L25.8,27.000097 C25.358002,27.000097 25,27.4473225 25,27.999806 C25,28.5527745 25.358002,29 25.8,29 L28.2,29 C28.6424057,29 29,28.5527745 29,27.999806 L29,25.000194 C29,24.4472255 28.6424057,24 28.2,24 Z" id="Path" fill="#5C546A"></path>
                    <path d="M41,34.1428868 C41,32.9591851 40.1045872,32 39,32 C37.8954128,32 37,32.9591851 37,34.1428868 C37,34.2896542 37.0142712,34.4330954 37.040367,34.5715474 L37,34.5715474 L37,38 L41,38 L41,34.5715474 L40.959633,34.5715474 C40.9861366,34.4330954 41,34.2896542 41,34.1428868 Z" id="Path" fill="#4BB9EC"></path>
                    <path d="M39,31 C37.3460026,31 36,32.3960658 36,34.111183 L36,38.1109674 C36,38.6024791 36.3835736,39 36.8571429,39 L41.1428571,39 C41.6164264,39 42,38.6024791 42,38.1109674 L42,34.111183 C42,32.3960658 40.6539974,31 39,31 Z M39,32.7780652 C39.7090433,32.7780652 40.2857143,33.3760711 40.2857143,34.111183 L40.2857143,34.5556993 L37.7142857,34.5556993 L37.7142857,34.111183 C37.7142857,33.3760711 38.2909567,32.7780652 39,32.7780652 Z M37.7142857,37.2223659 L37.7142857,36.3333333 L40.2857143,36.3333333 L40.2857143,37.2223659 L37.7142857,37.2223659 Z" id="Shape" fill="#7E5C62"></path>
                    <polygon id="Path" fill="#4BB9EC" points="19 43 15 43 15 48 19 48"></polygon>
                    <path d="M19.1428384,42 L14.8571616,42 C14.3833636,42 14,42.3913175 14,42.8751592 L14,48.1248408 C14,48.6086825 14.3833636,49 14.8571616,49 L19.1428384,49 C19.6168549,49 20,48.6086825 20,48.1248408 L20,42.8751592 C20,42.3913175 19.6168549,42 19.1428384,42 Z M18.2856768,43.7498939 L18.2856768,44.6250531 L15.7143232,44.6250531 L15.7143232,43.7498939 L18.2856768,43.7498939 Z M15.7143232,47.2501061 L15.7143232,46.3749469 L18.2856768,46.3749469 L18.2856768,47.2501061 L15.7143232,47.2501061 Z" id="Shape" fill="#7E5C62"></path>
                    <polygon id="Path" fill="#4BB9EC" points="11 43 7 43 7 48 11 48"></polygon>
                    <path d="M11.1428509,42 L6.8571491,42 C6.38335797,42 6,42.3913175 6,42.8751592 L6,48.1248408 C6,48.6086825 6.38335797,49 6.8571491,49 L11.1428509,49 C11.616642,49 12,48.6086825 12,48.1248408 L12,42.8751592 C12,42.3913175 11.616642,42 11.1428509,42 Z M10.2857018,43.7498939 L10.2857018,44.6250531 L7.7142982,44.6250531 L7.7142982,43.7498939 L10.2857018,43.7498939 Z M7.7142982,47.2501061 L7.7142982,46.3749469 L10.2857018,46.3749469 L10.2857018,47.2501061 L7.7142982,47.2501061 Z" id="Shape" fill="#7E5C62"></path>
                    <polygon id="Path" fill="#4BB9EC" points="49 43 45 43 45 48 49 48"></polygon>
                    <path d="M49.1428571,42 L44.8571429,42 C44.3831367,42 44,42.3913175 44,42.8751592 L44,48.1248408 C44,48.6086825 44.3831367,49 44.8571429,49 L49.1428571,49 C49.6164264,49 50,48.6086825 50,48.1248408 L50,42.8751592 C50,42.3913175 49.6164264,42 49.1428571,42 Z M48.2857143,43.7498939 L48.2857143,44.6250531 L45.7142857,44.6250531 L45.7142857,43.7498939 L48.2857143,43.7498939 Z M45.7142857,47.2501061 L45.7142857,46.3749469 L48.2857143,46.3749469 L48.2857143,47.2501061 L45.7142857,47.2501061 Z" id="Shape" fill="#7E5C62"></path>
                    <polygon id="Path" fill="#4BB9EC" points="41 43 37 43 37 48 41 48"></polygon>
                    <path d="M41.1428571,42 L36.8571429,42 C36.3835736,42 36,42.3913175 36,42.8751592 L36,48.1248408 C36,48.6086825 36.3835736,49 36.8571429,49 L41.1428571,49 C41.6168633,49 42,48.6086825 42,48.1248408 L42,42.8751592 C42,42.3913175 41.6168633,42 41.1428571,42 Z M40.2857143,43.7498939 L40.2857143,44.6250531 L37.7142857,44.6250531 L37.7142857,43.7498939 L40.2857143,43.7498939 Z M37.7142857,47.2501061 L37.7142857,46.3749469 L40.2857143,46.3749469 L40.2857143,47.2501061 L37.7142857,47.2501061 Z" id="Shape" fill="#7E5C62"></path>
                    <path d="M49,34.1428868 C49,32.9591851 48.1045872,32 47,32 C45.8954128,32 45,32.9591851 45,34.1428868 C45,34.2896542 45.0138634,34.4330954 45.040367,34.5715474 L45,34.5715474 L45,38 L49,38 L49,34.5715474 L48.959633,34.5715474 C48.9857288,34.4330954 49,34.2896542 49,34.1428868 Z" id="Path" fill="#4BB9EC"></path>
                    <path d="M47,31 C45.3460026,31 44,32.3960658 44,34.111183 L44,38.1109674 C44,38.6024791 44.3835736,39 44.8571429,39 L49.1428571,39 C49.6168633,39 50,38.6024791 50,38.1109674 L50,34.111183 C50,32.3960658 48.6539974,31 47,31 Z M47,32.7780652 C47.7090433,32.7780652 48.2857143,33.3760711 48.2857143,34.111183 L48.2857143,34.5556993 L45.7142857,34.5556993 L45.7142857,34.111183 C45.7142857,33.3760711 46.2909567,32.7780652 47,32.7780652 Z M45.7142857,37.2223659 L45.7142857,36.3333333 L48.2857143,36.3333333 L48.2857143,37.2223659 L45.7142857,37.2223659 Z" id="Shape" fill="#7E5C62"></path>
                    <path d="M11,34.1428868 C11,32.9591851 10.1045872,32 9,32 C7.89541284,32 7,32.9591851 7,34.1428868 C7,34.2896542 7.01410805,34.4330954 7.0403262,34.5715474 L7,34.5715474 L7,38 L11,38 L11,34.5715474 L10.9597146,34.5715474 C10.9858919,34.4330954 11,34.2896542 11,34.1428868 Z" id="Path" fill="#4BB9EC"></path>
                    <path d="M9.00002184,31 C7.34592505,31 6,32.3960658 6,34.111183 L6,38.1109674 C6,38.6024791 6.38335797,39 6.8571491,39 L11.1428509,39 C11.616642,39 12,38.6024791 12,38.1109674 L12,34.111183 C12,32.3960658 10.654075,31 9.00002184,31 Z M9.00002184,32.7780652 C9.70898288,32.7780652 10.2857018,33.3760711 10.2857018,34.111183 L10.2857018,34.5556993 L7.7142982,34.5556993 L7.7142982,34.111183 C7.7142982,33.3760711 8.29106081,32.7780652 9.00002184,32.7780652 Z M7.7142982,37.2223659 L7.7142982,36.3333333 L10.2857018,36.3333333 L10.2857018,37.2223659 L7.7142982,37.2223659 Z" id="Shape" fill="#7E5C62"></path>
                    <path d="M19,34.1428868 C19,32.9591851 18.1045506,32 16.9999184,32 C15.8954494,32 15,32.9591851 15,34.1428868 C15,34.2896542 15.0141086,34.4330954 15.0402871,34.5715474 L15,34.5715474 L15,38 L19,38 L19,34.5715474 L18.9600391,34.5715474 C18.986136,34.4330954 19,34.2896542 19,34.1428868 Z" id="Path" fill="#4BB9EC"></path>
                    <path d="M16.9999782,31 C15.345925,31 14,32.3960658 14,34.111183 L14,38.1109674 C14,38.6024791 14.383358,39 14.8571491,39 L19.1428509,39 C19.6168605,39 20,38.6024791 20,38.1109674 L20,34.111183 C20,32.3960658 18.6539876,31 16.9999782,31 Z M16.9999782,32.7780652 C17.7090266,32.7780652 18.2857018,33.3760711 18.2857018,34.111183 L18.2857018,34.5556993 L15.7142982,34.5556993 L15.7142982,34.111183 C15.7142982,33.3760711 16.2909297,32.7780652 16.9999782,32.7780652 Z M15.7142982,37.2223659 L15.7142982,36.3333333 L18.2857018,36.3333333 L18.2857018,37.2223659 L15.7142982,37.2223659 Z" id="Shape" fill="#7E5C62"></path>
                    <path d="M28,35 C24.6915684,35 22,32.0840869 22,28.4997748 C22,24.9159131 24.6915684,22 28,22 C31.3084316,22 34,24.9159131 34,28.4997748 C34,32.0840869 31.3084316,35 28,35 Z M28,23.8570142 C25.6369594,23.8570142 23.7142857,25.9396806 23.7142857,28.4997748 C23.7142857,31.0603194 25.6369594,33.1429858 28,33.1429858 C30.3630406,33.1429858 32.2857143,31.0603194 32.2857143,28.4997748 C32.2857143,25.9396806 30.3630406,23.8570142 28,23.8570142 Z" id="Shape" fill="#7E5C62"></path>
                    <path d="M31.4285714,38 L24.5714286,38 C23.1537789,38 22,39.1960441 22,40.6667385 L22,53.1113746 C22,53.6024684 22.3835736,54 22.8571429,54 C23.331149,54 23.7142857,53.6024684 23.7142857,53.1113746 L23.7142857,43.3334771 L27.1192661,43.3334771 L27.1192661,53.1113746 L28.8335518,53.1113746 L28.8335518,43.3334771 L32.2857143,43.3334771 L32.2857143,53.1113746 C32.2857143,53.6024684 32.6692879,54 33.1428571,54 C33.6168633,54 34,53.6024684 34,53.1113746 L34,40.6667385 C34,39.1960441 32.8466579,38 31.4285714,38 Z M32.2857143,41.5553639 L23.7142857,41.5553639 L23.7142857,40.6667385 C23.7142857,40.1760759 24.0987331,39.777682 24.5714286,39.777682 L31.4285714,39.777682 C31.9017038,39.777682 32.2857143,40.1760759 32.2857143,40.6667385 L32.2857143,41.5553639 Z" id="Shape" fill="#7E5C62"></path>
                    <path d="M55.1249965,54 L0.875003484,54 C0.391343301,54 0,53.5527528 0,53.0002425 C0,52.4472472 0.391343301,52 0.875003484,52 L55.1249965,52 C55.6084337,52 56,52.4472472 56,53.0002425 C56,53.5527528 55.6084337,54 55.1249965,54 Z" id="Path" fill="#5C546A"></path>
                </g>
            </g>
            <path d="M221.6153,232.056605 C222.128233,231.473033 222.128233,230.526967 221.6153,229.943395 L213.245287,220.436933 C212.731477,219.854356 211.898509,219.854356 211.3847,220.436933 C210.871767,221.020506 210.871767,221.966571 211.3847,222.550144 L218.825296,231 L211.3847,239.449856 C210.871767,240.033429 210.871767,240.979494 211.3847,241.563067 C211.898509,242.145644 212.731477,242.145644 213.245287,241.563067 L221.6153,232.056605 Z M179,232 L221,232 L221,229 L179,229 L179,232 Z" id="Shape" fill="#000000" fill-rule="nonzero"></path>
            <path d="M221.6153,364.056605 C222.128233,363.473033 222.128233,362.526967 221.6153,361.943395 L213.245287,352.436933 C212.731477,351.854356 211.898509,351.854356 211.3847,352.436933 C210.871767,353.020506 210.871767,353.966571 211.3847,354.550144 L218.825296,363 L211.3847,371.449856 C210.871767,372.033429 210.871767,372.979494 211.3847,373.563067 C211.898509,374.145644 212.731477,374.145644 213.245287,373.563067 L221.6153,364.056605 Z M179,364 L221,364 L221,361 L179,361 L179,364 Z" id="Shape-Copy" fill="#000000" fill-rule="nonzero"></path>
            <path d="M221.6153,364.056605 C222.128233,363.473033 222.128233,362.526967 221.6153,361.943395 L213.245287,352.436933 C212.731477,351.854356 211.898509,351.854356 211.3847,352.436933 C210.871767,353.020506 210.871767,353.966571 211.3847,354.550144 L218.825296,363 L211.3847,371.449856 C210.871767,372.033429 210.871767,372.979494 211.3847,373.563067 C211.898509,374.145644 212.731477,374.145644 213.245287,373.563067 L221.6153,364.056605 Z M179,364 L221,364 L221,361 L179,361 L179,364 Z" id="Shape-Copy-3" fill="#000000" fill-rule="nonzero"></path>
            <path d="M629.6153,296.056605 C630.128233,295.473033 630.128233,294.526967 629.6153,293.943395 L621.245287,284.436933 C620.731477,283.854356 619.898509,283.854356 619.3847,284.436933 C618.871767,285.020506 618.871767,285.966571 619.3847,286.550144 L626.825296,295 L619.3847,303.449856 C618.871767,304.033429 618.871767,304.979494 619.3847,305.563067 C619.898509,306.145644 620.731477,306.145644 621.245287,305.563067 L629.6153,296.056605 Z M587,296 L629,296 L629,293 L587,293 L587,296 Z" id="Shape-Copy-3" fill="#000000" fill-rule="nonzero"></path>
            <path d="M409.061,255.061 C409.646,254.475 409.646,253.525 409.061,252.939 L399.515,243.393 C398.929,242.808 397.979,242.808 397.393,243.393 C396.808,243.979 396.808,244.929 397.393,245.515 L405.879,254 L397.393,262.485 C396.808,263.071 396.808,264.021 397.393,264.607 C397.979,265.192 398.929,265.192 399.515,264.607 L409.061,255.061 Z M360,255.5 L408,255.5 L408,252.5 L360,252.5 L360,255.5 Z" id="Shape" fill="#000000" fill-rule="nonzero" transform="translate(384.749875, 254.000000) rotate(45.000000) translate(-384.749875, -254.000000) "></path>
            <path d="M409.061,342.061 C409.646,341.475 409.646,340.525 409.061,339.939 L399.515,330.393 C398.929,329.808 397.979,329.808 397.393,330.393 C396.808,330.979 396.808,331.929 397.393,332.515 L405.879,341 L397.393,349.485 C396.808,350.071 396.808,351.021 397.393,351.607 C397.979,352.192 398.929,352.192 399.515,351.607 L409.061,342.061 Z M360,342.5 L408,342.5 L408,339.5 L360,339.5 L360,342.5 Z" id="Shape-Copy-2" fill="#000000" fill-rule="nonzero" transform="translate(384.749875, 341.000000) rotate(-45.000000) translate(-384.749875, -341.000000) "></path>
            <g id="CA-Feed" transform="translate(224.000000, 176.026000)" fill-rule="nonzero">
                <g id="cloud">
                    <path d="M117.56,76.467 C128.984,76.467 138.246,68.125 138.246,57.835 C138.246,48.945 131.332,41.515 122.085,39.655 C122.872,37.134 123.293,34.475 123.293,31.727 C123.293,15.574 108.756,2.481 90.823,2.481 C74.044,2.481 60.238,13.944 58.531,28.65 C53.96,24.891 47.167,23.729 41.179,26.185 C34.74,28.826 31.197,34.846 31.95,40.853 C29.354,39.796 26.475,39.203 23.44,39.203 C12.015,39.203 2.754,47.545 2.754,57.835 C2.754,68.126 12.015,76.467 23.44,76.467 L117.56,76.467 L117.56,76.467 Z" id="Path" fill="#93E7F8"></path>
                    <path d="M117.56,78.948 L65.451,78.948 C63.93,78.948 62.697,77.837 62.697,76.467 C62.697,75.097 63.93,73.987 65.451,73.987 L117.56,73.987 C127.448,73.987 135.492,66.741 135.492,57.835 C135.492,50.336 129.601,43.708 121.485,42.076 C120.747,41.928 120.109,41.512 119.721,40.928 C119.333,40.343 119.229,39.64 119.434,38.985 C120.168,36.633 120.54,34.191 120.54,31.727 C120.54,16.968 107.209,4.961 90.823,4.961 C75.56,4.961 62.855,15.256 61.27,28.908 C61.162,29.839 60.481,30.636 59.509,30.969 C58.538,31.301 57.442,31.113 56.674,30.482 C52.767,27.269 47.133,26.469 42.32,28.443 C37.112,30.58 34.044,35.455 34.687,40.576 C34.798,41.462 34.372,42.334 33.571,42.859 C32.771,43.385 31.718,43.482 30.816,43.114 C28.485,42.165 26.003,41.684 23.44,41.684 C13.552,41.683 5.508,48.929 5.508,57.835 C5.508,66.741 13.552,73.987 23.44,73.987 L43.42,73.987 C44.941,73.987 46.174,75.097 46.174,76.467 C46.174,77.837 44.941,78.948 43.42,78.948 L23.44,78.948 C10.515,78.948 0,69.477 0,57.835 C0,46.193 10.515,36.722 23.44,36.722 C25.405,36.722 27.333,36.939 29.207,37.368 C29.919,31.568 33.945,26.427 40.037,23.928 C45.407,21.725 51.499,21.958 56.55,24.378 C58.182,18.185 61.863,12.549 67.176,8.212 C73.663,2.917 82.061,0 90.823,0 C110.246,0 126.048,14.233 126.048,31.727 C126.048,33.818 125.821,35.896 125.373,37.932 C129.418,39.224 133.043,41.517 135.772,44.546 C139.143,48.288 141,53.007 141,57.835 C141,69.477 130.485,78.948 117.56,78.948 Z" id="Path" fill="#000000"></path>
                    <path d="M90.913,14.883 C90.909,14.883 90.905,14.883 90.901,14.883 L90.823,14.883 C89.302,14.883 88.069,13.772 88.069,12.402 C88.069,11.032 89.302,9.922 90.823,9.922 L90.925,9.922 C92.446,9.928 93.674,11.044 93.6670298,12.413 C93.66,13.78 92.429,14.883 90.913,14.883 Z" id="Path" fill="#000000"></path>
                    <path d="M112.278,34.207 C110.757,34.207 109.524,33.097 109.524,31.727 C109.524,25.736 105.944,20.147 100.181,17.14 C98.865,16.453 98.416,14.935 99.179,13.75 C99.941,12.564 101.626,12.16 102.942,12.847 C110.399,16.738 115.032,23.972 115.032,31.727 C115.032,33.097 113.799,34.207 112.278,34.207 Z" id="Path" fill="#000000"></path>
                    <path d="M54.436,78.948 C53.709,78.948 53.002,78.683 52.489,78.221 C51.974,77.76 51.683,77.12 51.683,76.467 C51.683,75.815 51.974,75.175 52.489,74.714 C53.002,74.252 53.712,73.987 54.436,73.987 C55.161,73.987 55.871,74.252 56.383,74.714 C56.896,75.175 57.19,75.815 57.19,76.467 C57.19,77.12 56.896,77.76 56.383,78.221 C55.871,78.683 55.161,78.948 54.436,78.948 Z" id="Path" fill="#000000"></path>
                </g>
                <path d="M55.835,59.974 L54.485,59.974 L54.485,49.264 L60.47,49.264 L60.47,50.449 L55.835,50.449 L55.835,54.244 L60.185,54.244 L60.185,55.429 L55.835,55.429 L55.835,59.974 Z M65.188,51.784 C65.878,51.784 66.468,51.934 66.958,52.234 C67.458,52.534 67.838,52.959 68.098,53.509 C68.368,54.049 68.503,54.684 68.503,55.414 L68.503,56.209 L62.998,56.209 C63.018,57.119 63.248,57.814 63.688,58.294 C64.138,58.764 64.763,58.999 65.563,58.999 C66.073,58.999 66.523,58.954 66.913,58.864 C67.313,58.764 67.723,58.624 68.143,58.444 L68.143,59.599 C67.733,59.779 67.328,59.909 66.928,59.989 C66.528,60.079 66.053,60.124 65.503,60.124 C64.743,60.124 64.068,59.969 63.478,59.659 C62.898,59.349 62.443,58.889 62.113,58.279 C61.793,57.659 61.633,56.904 61.633,56.014 C61.633,55.134 61.778,54.379 62.068,53.749 C62.368,53.119 62.783,52.634 63.313,52.294 C63.853,51.954 64.478,51.784 65.188,51.784 Z M65.173,52.864 C64.543,52.864 64.043,53.069 63.673,53.479 C63.313,53.879 63.098,54.439 63.028,55.159 L67.123,55.159 C67.123,54.699 67.053,54.299 66.913,53.959 C66.773,53.619 66.558,53.354 66.268,53.164 C65.988,52.964 65.623,52.864 65.173,52.864 Z M73.655,51.784 C74.345,51.784 74.935,51.934 75.425,52.234 C75.925,52.534 76.305,52.959 76.565,53.509 C76.835,54.049 76.97,54.684 76.97,55.414 L76.97,56.209 L71.465,56.209 C71.485,57.119 71.715,57.814 72.155,58.294 C72.605,58.764 73.23,58.999 74.03,58.999 C74.54,58.999 74.99,58.954 75.38,58.864 C75.78,58.764 76.19,58.624 76.61,58.444 L76.61,59.599 C76.2,59.779 75.795,59.909 75.395,59.989 C74.995,60.079 74.52,60.124 73.97,60.124 C73.21,60.124 72.535,59.969 71.945,59.659 C71.365,59.349 70.91,58.889 70.58,58.279 C70.26,57.659 70.1,56.904 70.1,56.014 C70.1,55.134 70.245,54.379 70.535,53.749 C70.835,53.119 71.25,52.634 71.78,52.294 C72.32,51.954 72.945,51.784 73.655,51.784 Z M73.64,52.864 C73.01,52.864 72.51,53.069 72.14,53.479 C71.78,53.879 71.565,54.439 71.495,55.159 L75.59,55.159 C75.59,54.699 75.52,54.299 75.38,53.959 C75.24,53.619 75.025,53.354 74.735,53.164 C74.455,52.964 74.09,52.864 73.64,52.864 Z M81.867,60.124 C80.867,60.124 80.067,59.779 79.467,59.089 C78.867,58.389 78.567,57.349 78.567,55.969 C78.567,54.589 78.867,53.549 79.467,52.849 C80.077,52.139 80.882,51.784 81.882,51.784 C82.302,51.784 82.667,51.839 82.977,51.949 C83.287,52.049 83.557,52.189 83.787,52.369 C84.017,52.549 84.212,52.749 84.372,52.969 L84.462,52.969 C84.452,52.839 84.432,52.649 84.402,52.399 C84.382,52.139 84.372,51.934 84.372,51.784 L84.372,48.574 L85.692,48.574 L85.692,59.974 L84.627,59.974 L84.432,58.894 L84.372,58.894 C84.212,59.124 84.017,59.334 83.787,59.524 C83.557,59.704 83.282,59.849 82.962,59.959 C82.652,60.069 82.287,60.124 81.867,60.124 Z M82.077,59.029 C82.927,59.029 83.522,58.799 83.862,58.339 C84.212,57.869 84.387,57.164 84.387,56.224 L84.387,55.984 C84.387,54.984 84.222,54.219 83.892,53.689 C83.562,53.149 82.952,52.879 82.062,52.879 C81.352,52.879 80.817,53.164 80.457,53.734 C80.107,54.294 79.932,55.049 79.932,55.999 C79.932,56.959 80.107,57.704 80.457,58.234 C80.817,58.764 81.357,59.029 82.077,59.029 Z" id="Shape" fill="#000000"></path>
            </g>
            <g id="CDC-Feed" transform="translate(631.000000, 237.026000)" fill-rule="nonzero">
                <g id="cloud">
                    <path d="M117.56,76.467 C128.984,76.467 138.246,68.125 138.246,57.835 C138.246,48.945 131.332,41.515 122.085,39.655 C122.872,37.134 123.293,34.475 123.293,31.727 C123.293,15.574 108.756,2.481 90.823,2.481 C74.044,2.481 60.238,13.944 58.531,28.65 C53.96,24.891 47.167,23.729 41.179,26.185 C34.74,28.826 31.197,34.846 31.95,40.853 C29.354,39.796 26.475,39.203 23.44,39.203 C12.015,39.203 2.754,47.545 2.754,57.835 C2.754,68.126 12.015,76.467 23.44,76.467 L117.56,76.467 L117.56,76.467 Z" id="Path" fill="#93E7F8"></path>
                    <path d="M117.56,78.948 L65.451,78.948 C63.93,78.948 62.697,77.837 62.697,76.467 C62.697,75.097 63.93,73.987 65.451,73.987 L117.56,73.987 C127.448,73.987 135.492,66.741 135.492,57.835 C135.492,50.336 129.601,43.708 121.485,42.076 C120.747,41.928 120.109,41.512 119.721,40.928 C119.333,40.343 119.229,39.64 119.434,38.985 C120.168,36.633 120.54,34.191 120.54,31.727 C120.54,16.968 107.209,4.961 90.823,4.961 C75.56,4.961 62.855,15.256 61.27,28.908 C61.162,29.839 60.481,30.636 59.509,30.969 C58.538,31.301 57.442,31.113 56.674,30.482 C52.767,27.269 47.133,26.469 42.32,28.443 C37.112,30.58 34.044,35.455 34.687,40.576 C34.798,41.462 34.372,42.334 33.571,42.859 C32.771,43.385 31.718,43.482 30.816,43.114 C28.485,42.165 26.003,41.684 23.44,41.684 C13.552,41.683 5.508,48.929 5.508,57.835 C5.508,66.741 13.552,73.987 23.44,73.987 L43.42,73.987 C44.941,73.987 46.174,75.097 46.174,76.467 C46.174,77.837 44.941,78.948 43.42,78.948 L23.44,78.948 C10.515,78.948 0,69.477 0,57.835 C0,46.193 10.515,36.722 23.44,36.722 C25.405,36.722 27.333,36.939 29.207,37.368 C29.919,31.568 33.945,26.427 40.037,23.928 C45.407,21.725 51.499,21.958 56.55,24.378 C58.182,18.185 61.863,12.549 67.176,8.212 C73.663,2.917 82.061,0 90.823,0 C110.246,0 126.048,14.233 126.048,31.727 C126.048,33.818 125.821,35.896 125.373,37.932 C129.418,39.224 133.043,41.517 135.772,44.546 C139.143,48.288 141,53.007 141,57.835 C141,69.477 130.485,78.948 117.56,78.948 Z" id="Path" fill="#000000"></path>
                    <path d="M90.913,14.883 C90.909,14.883 90.905,14.883 90.901,14.883 L90.823,14.883 C89.302,14.883 88.069,13.772 88.069,12.402 C88.069,11.032 89.302,9.922 90.823,9.922 L90.925,9.922 C92.446,9.928 93.674,11.044 93.6670298,12.413 C93.66,13.78 92.429,14.883 90.913,14.883 Z" id="Path" fill="#000000"></path>
                    <path d="M112.278,34.207 C110.757,34.207 109.524,33.097 109.524,31.727 C109.524,25.736 105.944,20.147 100.181,17.14 C98.865,16.453 98.416,14.935 99.179,13.75 C99.941,12.564 101.626,12.16 102.942,12.847 C110.399,16.738 115.032,23.972 115.032,31.727 C115.032,33.097 113.799,34.207 112.278,34.207 Z" id="Path" fill="#000000"></path>
                    <path d="M54.436,78.948 C53.709,78.948 53.002,78.683 52.489,78.221 C51.974,77.76 51.683,77.12 51.683,76.467 C51.683,75.815 51.974,75.175 52.489,74.714 C53.002,74.252 53.712,73.987 54.436,73.987 C55.161,73.987 55.871,74.252 56.383,74.714 C56.896,75.175 57.19,75.815 57.19,76.467 C57.19,77.12 56.896,77.76 56.383,78.221 C55.871,78.683 55.161,78.948 54.436,78.948 Z" id="Path" fill="#000000"></path>
                </g>
                <path d="M55.835,59.974 L54.485,59.974 L54.485,49.264 L60.47,49.264 L60.47,50.449 L55.835,50.449 L55.835,54.244 L60.185,54.244 L60.185,55.429 L55.835,55.429 L55.835,59.974 Z M65.188,51.784 C65.878,51.784 66.468,51.934 66.958,52.234 C67.458,52.534 67.838,52.959 68.098,53.509 C68.368,54.049 68.503,54.684 68.503,55.414 L68.503,56.209 L62.998,56.209 C63.018,57.119 63.248,57.814 63.688,58.294 C64.138,58.764 64.763,58.999 65.563,58.999 C66.073,58.999 66.523,58.954 66.913,58.864 C67.313,58.764 67.723,58.624 68.143,58.444 L68.143,59.599 C67.733,59.779 67.328,59.909 66.928,59.989 C66.528,60.079 66.053,60.124 65.503,60.124 C64.743,60.124 64.068,59.969 63.478,59.659 C62.898,59.349 62.443,58.889 62.113,58.279 C61.793,57.659 61.633,56.904 61.633,56.014 C61.633,55.134 61.778,54.379 62.068,53.749 C62.368,53.119 62.783,52.634 63.313,52.294 C63.853,51.954 64.478,51.784 65.188,51.784 Z M65.173,52.864 C64.543,52.864 64.043,53.069 63.673,53.479 C63.313,53.879 63.098,54.439 63.028,55.159 L67.123,55.159 C67.123,54.699 67.053,54.299 66.913,53.959 C66.773,53.619 66.558,53.354 66.268,53.164 C65.988,52.964 65.623,52.864 65.173,52.864 Z M73.655,51.784 C74.345,51.784 74.935,51.934 75.425,52.234 C75.925,52.534 76.305,52.959 76.565,53.509 C76.835,54.049 76.97,54.684 76.97,55.414 L76.97,56.209 L71.465,56.209 C71.485,57.119 71.715,57.814 72.155,58.294 C72.605,58.764 73.23,58.999 74.03,58.999 C74.54,58.999 74.99,58.954 75.38,58.864 C75.78,58.764 76.19,58.624 76.61,58.444 L76.61,59.599 C76.2,59.779 75.795,59.909 75.395,59.989 C74.995,60.079 74.52,60.124 73.97,60.124 C73.21,60.124 72.535,59.969 71.945,59.659 C71.365,59.349 70.91,58.889 70.58,58.279 C70.26,57.659 70.1,56.904 70.1,56.014 C70.1,55.134 70.245,54.379 70.535,53.749 C70.835,53.119 71.25,52.634 71.78,52.294 C72.32,51.954 72.945,51.784 73.655,51.784 Z M73.64,52.864 C73.01,52.864 72.51,53.069 72.14,53.479 C71.78,53.879 71.565,54.439 71.495,55.159 L75.59,55.159 C75.59,54.699 75.52,54.299 75.38,53.959 C75.24,53.619 75.025,53.354 74.735,53.164 C74.455,52.964 74.09,52.864 73.64,52.864 Z M81.867,60.124 C80.867,60.124 80.067,59.779 79.467,59.089 C78.867,58.389 78.567,57.349 78.567,55.969 C78.567,54.589 78.867,53.549 79.467,52.849 C80.077,52.139 80.882,51.784 81.882,51.784 C82.302,51.784 82.667,51.839 82.977,51.949 C83.287,52.049 83.557,52.189 83.787,52.369 C84.017,52.549 84.212,52.749 84.372,52.969 L84.462,52.969 C84.452,52.839 84.432,52.649 84.402,52.399 C84.382,52.139 84.372,51.934 84.372,51.784 L84.372,48.574 L85.692,48.574 L85.692,59.974 L84.627,59.974 L84.432,58.894 L84.372,58.894 C84.212,59.124 84.017,59.334 83.787,59.524 C83.557,59.704 83.282,59.849 82.962,59.959 C82.652,60.069 82.287,60.124 81.867,60.124 Z M82.077,59.029 C82.927,59.029 83.522,58.799 83.862,58.339 C84.212,57.869 84.387,57.164 84.387,56.224 L84.387,55.984 C84.387,54.984 84.222,54.219 83.892,53.689 C83.562,53.149 82.952,52.879 82.062,52.879 C81.352,52.879 80.817,53.164 80.457,53.734 C80.107,54.294 79.932,55.049 79.932,55.999 C79.932,56.959 80.107,57.704 80.457,58.234 C80.817,58.764 81.357,59.029 82.077,59.029 Z" id="Shape" fill="#000000"></path>
            </g>
            <g id="AZ-Feed" transform="translate(224.000000, 305.026000)" fill-rule="nonzero">
                <g id="cloud">
                    <path d="M117.56,76.467 C128.984,76.467 138.246,68.125 138.246,57.835 C138.246,48.945 131.332,41.515 122.085,39.655 C122.872,37.134 123.293,34.475 123.293,31.727 C123.293,15.574 108.756,2.481 90.823,2.481 C74.044,2.481 60.238,13.944 58.531,28.65 C53.96,24.891 47.167,23.729 41.179,26.185 C34.74,28.826 31.197,34.846 31.95,40.853 C29.354,39.796 26.475,39.203 23.44,39.203 C12.015,39.203 2.754,47.545 2.754,57.835 C2.754,68.126 12.015,76.467 23.44,76.467 L117.56,76.467 L117.56,76.467 Z" id="Path" fill="#93E7F8"></path>
                    <path d="M117.56,78.948 L65.451,78.948 C63.93,78.948 62.697,77.837 62.697,76.467 C62.697,75.097 63.93,73.987 65.451,73.987 L117.56,73.987 C127.448,73.987 135.492,66.741 135.492,57.835 C135.492,50.336 129.601,43.708 121.485,42.076 C120.747,41.928 120.109,41.512 119.721,40.928 C119.333,40.343 119.229,39.64 119.434,38.985 C120.168,36.633 120.54,34.191 120.54,31.727 C120.54,16.968 107.209,4.961 90.823,4.961 C75.56,4.961 62.855,15.256 61.27,28.908 C61.162,29.839 60.481,30.636 59.509,30.969 C58.538,31.301 57.442,31.113 56.674,30.482 C52.767,27.269 47.133,26.469 42.32,28.443 C37.112,30.58 34.044,35.455 34.687,40.576 C34.798,41.462 34.372,42.334 33.571,42.859 C32.771,43.385 31.718,43.482 30.816,43.114 C28.485,42.165 26.003,41.684 23.44,41.684 C13.552,41.683 5.508,48.929 5.508,57.835 C5.508,66.741 13.552,73.987 23.44,73.987 L43.42,73.987 C44.941,73.987 46.174,75.097 46.174,76.467 C46.174,77.837 44.941,78.948 43.42,78.948 L23.44,78.948 C10.515,78.948 0,69.477 0,57.835 C0,46.193 10.515,36.722 23.44,36.722 C25.405,36.722 27.333,36.939 29.207,37.368 C29.919,31.568 33.945,26.427 40.037,23.928 C45.407,21.725 51.499,21.958 56.55,24.378 C58.182,18.185 61.863,12.549 67.176,8.212 C73.663,2.917 82.061,0 90.823,0 C110.246,0 126.048,14.233 126.048,31.727 C126.048,33.818 125.821,35.896 125.373,37.932 C129.418,39.224 133.043,41.517 135.772,44.546 C139.143,48.288 141,53.007 141,57.835 C141,69.477 130.485,78.948 117.56,78.948 Z" id="Path" fill="#000000"></path>
                    <path d="M90.913,14.883 C90.909,14.883 90.905,14.883 90.901,14.883 L90.823,14.883 C89.302,14.883 88.069,13.772 88.069,12.402 C88.069,11.032 89.302,9.922 90.823,9.922 L90.925,9.922 C92.446,9.928 93.674,11.044 93.6670298,12.413 C93.66,13.78 92.429,14.883 90.913,14.883 Z" id="Path" fill="#000000"></path>
                    <path d="M112.278,34.207 C110.757,34.207 109.524,33.097 109.524,31.727 C109.524,25.736 105.944,20.147 100.181,17.14 C98.865,16.453 98.416,14.935 99.179,13.75 C99.941,12.564 101.626,12.16 102.942,12.847 C110.399,16.738 115.032,23.972 115.032,31.727 C115.032,33.097 113.799,34.207 112.278,34.207 Z" id="Path" fill="#000000"></path>
                    <path d="M54.436,78.948 C53.709,78.948 53.002,78.683 52.489,78.221 C51.974,77.76 51.683,77.12 51.683,76.467 C51.683,75.815 51.974,75.175 52.489,74.714 C53.002,74.252 53.712,73.987 54.436,73.987 C55.161,73.987 55.871,74.252 56.383,74.714 C56.896,75.175 57.19,75.815 57.19,76.467 C57.19,77.12 56.896,77.76 56.383,78.221 C55.871,78.683 55.161,78.948 54.436,78.948 Z" id="Path" fill="#000000"></path>
                </g>
                <path d="M55.835,59.974 L54.485,59.974 L54.485,49.264 L60.47,49.264 L60.47,50.449 L55.835,50.449 L55.835,54.244 L60.185,54.244 L60.185,55.429 L55.835,55.429 L55.835,59.974 Z M65.188,51.784 C65.878,51.784 66.468,51.934 66.958,52.234 C67.458,52.534 67.838,52.959 68.098,53.509 C68.368,54.049 68.503,54.684 68.503,55.414 L68.503,56.209 L62.998,56.209 C63.018,57.119 63.248,57.814 63.688,58.294 C64.138,58.764 64.763,58.999 65.563,58.999 C66.073,58.999 66.523,58.954 66.913,58.864 C67.313,58.764 67.723,58.624 68.143,58.444 L68.143,59.599 C67.733,59.779 67.328,59.909 66.928,59.989 C66.528,60.079 66.053,60.124 65.503,60.124 C64.743,60.124 64.068,59.969 63.478,59.659 C62.898,59.349 62.443,58.889 62.113,58.279 C61.793,57.659 61.633,56.904 61.633,56.014 C61.633,55.134 61.778,54.379 62.068,53.749 C62.368,53.119 62.783,52.634 63.313,52.294 C63.853,51.954 64.478,51.784 65.188,51.784 Z M65.173,52.864 C64.543,52.864 64.043,53.069 63.673,53.479 C63.313,53.879 63.098,54.439 63.028,55.159 L67.123,55.159 C67.123,54.699 67.053,54.299 66.913,53.959 C66.773,53.619 66.558,53.354 66.268,53.164 C65.988,52.964 65.623,52.864 65.173,52.864 Z M73.655,51.784 C74.345,51.784 74.935,51.934 75.425,52.234 C75.925,52.534 76.305,52.959 76.565,53.509 C76.835,54.049 76.97,54.684 76.97,55.414 L76.97,56.209 L71.465,56.209 C71.485,57.119 71.715,57.814 72.155,58.294 C72.605,58.764 73.23,58.999 74.03,58.999 C74.54,58.999 74.99,58.954 75.38,58.864 C75.78,58.764 76.19,58.624 76.61,58.444 L76.61,59.599 C76.2,59.779 75.795,59.909 75.395,59.989 C74.995,60.079 74.52,60.124 73.97,60.124 C73.21,60.124 72.535,59.969 71.945,59.659 C71.365,59.349 70.91,58.889 70.58,58.279 C70.26,57.659 70.1,56.904 70.1,56.014 C70.1,55.134 70.245,54.379 70.535,53.749 C70.835,53.119 71.25,52.634 71.78,52.294 C72.32,51.954 72.945,51.784 73.655,51.784 Z M73.64,52.864 C73.01,52.864 72.51,53.069 72.14,53.479 C71.78,53.879 71.565,54.439 71.495,55.159 L75.59,55.159 C75.59,54.699 75.52,54.299 75.38,53.959 C75.24,53.619 75.025,53.354 74.735,53.164 C74.455,52.964 74.09,52.864 73.64,52.864 Z M81.867,60.124 C80.867,60.124 80.067,59.779 79.467,59.089 C78.867,58.389 78.567,57.349 78.567,55.969 C78.567,54.589 78.867,53.549 79.467,52.849 C80.077,52.139 80.882,51.784 81.882,51.784 C82.302,51.784 82.667,51.839 82.977,51.949 C83.287,52.049 83.557,52.189 83.787,52.369 C84.017,52.549 84.212,52.749 84.372,52.969 L84.462,52.969 C84.452,52.839 84.432,52.649 84.402,52.399 C84.382,52.139 84.372,51.934 84.372,51.784 L84.372,48.574 L85.692,48.574 L85.692,59.974 L84.627,59.974 L84.432,58.894 L84.372,58.894 C84.212,59.124 84.017,59.334 83.787,59.524 C83.557,59.704 83.282,59.849 82.962,59.959 C82.652,60.069 82.287,60.124 81.867,60.124 Z M82.077,59.029 C82.927,59.029 83.522,58.799 83.862,58.339 C84.212,57.869 84.387,57.164 84.387,56.224 L84.387,55.984 C84.387,54.984 84.222,54.219 83.892,53.689 C83.562,53.149 82.952,52.879 82.062,52.879 C81.352,52.879 80.817,53.164 80.457,53.734 C80.107,54.294 79.932,55.049 79.932,55.999 C79.932,56.959 80.107,57.704 80.457,58.234 C80.817,58.764 81.357,59.029 82.077,59.029 Z" id="Shape" fill="#000000"></path>
            </g>
            <g id="EpiCast-Central" transform="translate(296.000000, 0.000000)">
                <rect id="Rectangle-Copy" fill="#15A9E9" fill-rule="nonzero" x="0" y="0" width="177" height="100" rx="10"></rect>
                <text font-family="SegoeUI, Segoe UI" font-size="14" font-weight="normal" fill="#000000">
                    <tspan x="65" y="56">EpiCast Central</tspan>
                </text>
                <g id="symbol" transform="translate(17.666000, 14.000000)">
                    <path d="M34.252,56.838 L34.252,55.945 C34.252,47.01 26.941,39.698 18.005,39.698 C9.069,39.698 1.758,47.01 1.758,55.945 L1.758,56.838 C1.758,59.27 3.729,61.242 6.161,61.242 L29.848,61.242 C32.28,61.242 34.252,59.27 34.252,56.838 Z" id="Path" fill="#CEE8FA" fill-rule="nonzero"></path>
                    <path d="M29.848,63 L6.161,63 C2.764,63 0,60.236 0,56.838 L0,55.945 C0,46.017 8.077,37.94 18.005,37.94 C27.933,37.94 36.01,46.017 36.01,55.945 L36.01,56.838 C36.01,60.236 33.246,63 29.848,63 Z M18.005,41.457 C10.016,41.457 3.516,47.956 3.516,55.945 L3.516,56.838 C3.516,58.297 4.703,59.483 6.162,59.483 L29.849,59.483 C31.307,59.483 32.494,58.297 32.494,56.838 L32.494,55.945 C32.494,47.956 25.994,41.457 18.005,41.457 Z" id="Shape" fill="#2D527C" fill-rule="nonzero"></path>
                    <ellipse id="Oval" fill="#FFFFFF" cx="18.5" cy="28" rx="11.5" ry="11"></ellipse>
                    <path d="M18.005,41.261 C10.507,41.261 4.408,35.161 4.408,27.663 C4.408,20.166 10.507,14.066 18.005,14.066 C25.503,14.066 31.602,20.166 31.602,27.664 C31.602,35.161 25.502,41.261 18.005,41.261 Z M18.005,17.583 C12.446,17.583 7.924,22.105 7.924,27.664 C7.924,33.222 12.446,37.744 18.005,37.744 C23.563,37.744 28.086,33.222 28.086,27.664 C28.086,22.105 23.563,17.583 18.005,17.583 Z" id="Shape" fill="#2D527C" fill-rule="nonzero"></path>
                    <path d="M43.815,31.649 C43.765,31.649 43.714,31.647 43.663,31.643 C42.696,31.56 41.979,30.709 42.061,29.741 C42.121,29.04 42.152,28.341 42.152,27.663 C42.152,14.349 31.319,3.516 18.005,3.516 C17.034,3.516 16.246,2.729 16.246,1.758 C16.246,0.787 17.034,0 18.005,0 C33.259,0 45.668,12.41 45.668,27.664 C45.668,28.441 45.634,29.241 45.565,30.041 C45.487,30.957 44.718,31.649 43.815,31.649 Z" id="Path" fill="#2D527C" fill-rule="nonzero"></path>
                    <path d="M36.747,31.65 C36.678,31.65 36.609,31.645 36.539,31.637 C35.574,31.523 34.885,30.649 34.999,29.685 C35.078,29.011 35.119,28.331 35.119,27.664 C35.119,18.227 27.441,10.55 18.005,10.55 C17.034,10.55 16.246,9.763 16.246,8.791 C16.246,7.82 17.034,7.033 18.005,7.033 C29.38,7.033 38.635,16.288 38.635,27.663 C38.635,28.468 38.587,29.287 38.491,30.097 C38.385,30.991 37.626,31.65 36.747,31.65 Z" id="Path" fill="#2D527C" fill-rule="nonzero"></path>
                </g>
            </g>
        </g>
    </g>
</svg>