<svg width="664" height="380" viewBox="0 0 664 380" fill="none" xmlns="http://www.w3.org/2000/svg">
<rect width="664" height="380" fill="white"/>
<g filter="url(#filter0_d_3_4)">
<rect x="445" y="227" width="177" height="100" rx="10" fill="#15A9E9"/>
</g>
<g filter="url(#filter1_d_3_4)">
<rect x="38" y="227" width="177" height="100" rx="10" fill="#15A9E9"/>
</g>
<path d="M504.394 266.29C505.284 266.29 506.014 266.405 506.584 266.635C507.164 266.855 507.594 267.19 507.874 267.64C508.154 268.09 508.294 268.655 508.294 269.335C508.294 269.905 508.189 270.38 507.979 270.76C507.769 271.14 507.499 271.445 507.169 271.675C506.849 271.895 506.509 272.07 506.149 272.2L509.089 277H507.514L504.919 272.575H502.789V277H501.439V266.29H504.394ZM504.319 267.46H502.789V271.435H504.394C504.974 271.435 505.449 271.36 505.819 271.21C506.189 271.05 506.459 270.82 506.629 270.52C506.809 270.22 506.899 269.845 506.899 269.395C506.899 268.925 506.804 268.55 506.614 268.27C506.434 267.99 506.154 267.785 505.774 267.655C505.394 267.525 504.909 267.46 504.319 267.46ZM513.695 268.81C514.385 268.81 514.975 268.96 515.465 269.26C515.965 269.56 516.345 269.985 516.605 270.535C516.875 271.075 517.01 271.71 517.01 272.44V273.235H511.505C511.525 274.145 511.755 274.84 512.195 275.32C512.645 275.79 513.27 276.025 514.07 276.025C514.58 276.025 515.03 275.98 515.42 275.89C515.82 275.79 516.23 275.65 516.65 275.47V276.625C516.24 276.805 515.835 276.935 515.435 277.015C515.035 277.105 514.56 277.15 514.01 277.15C513.25 277.15 512.575 276.995 511.985 276.685C511.405 276.375 510.95 275.915 510.62 275.305C510.3 274.685 510.14 273.93 510.14 273.04C510.14 272.16 510.285 271.405 510.575 270.775C510.875 270.145 511.29 269.66 511.82 269.32C512.36 268.98 512.985 268.81 513.695 268.81ZM513.68 269.89C513.05 269.89 512.55 270.095 512.18 270.505C511.82 270.905 511.605 271.465 511.535 272.185H515.63C515.63 271.725 515.56 271.325 515.42 270.985C515.28 270.645 515.065 270.38 514.775 270.19C514.495 269.99 514.13 269.89 513.68 269.89ZM522.282 277.15C521.572 277.15 520.937 277.005 520.377 276.715C519.827 276.425 519.392 275.975 519.072 275.365C518.762 274.755 518.607 273.975 518.607 273.025C518.607 272.035 518.772 271.23 519.102 270.61C519.432 269.99 519.877 269.535 520.437 269.245C521.007 268.955 521.652 268.81 522.372 268.81C522.782 268.81 523.177 268.855 523.557 268.945C523.937 269.025 524.247 269.125 524.487 269.245L524.082 270.34C523.842 270.25 523.562 270.165 523.242 270.085C522.922 270.005 522.622 269.965 522.342 269.965C521.802 269.965 521.357 270.08 521.007 270.31C520.657 270.54 520.397 270.88 520.227 271.33C520.057 271.78 519.972 272.34 519.972 273.01C519.972 273.65 520.057 274.195 520.227 274.645C520.397 275.095 520.652 275.435 520.992 275.665C521.332 275.895 521.757 276.01 522.267 276.01C522.707 276.01 523.092 275.965 523.422 275.875C523.762 275.785 524.072 275.675 524.352 275.545V276.715C524.082 276.855 523.782 276.96 523.452 277.03C523.132 277.11 522.742 277.15 522.282 277.15ZM527.584 268.96V277H526.264V268.96H527.584ZM526.939 265.945C527.139 265.945 527.314 266.015 527.464 266.155C527.624 266.285 527.704 266.495 527.704 266.785C527.704 267.065 527.624 267.275 527.464 267.415C527.314 267.555 527.139 267.625 526.939 267.625C526.719 267.625 526.534 267.555 526.384 267.415C526.234 267.275 526.159 267.065 526.159 266.785C526.159 266.495 526.234 266.285 526.384 266.155C526.534 266.015 526.719 265.945 526.939 265.945ZM533.236 268.81C533.926 268.81 534.516 268.96 535.006 269.26C535.506 269.56 535.886 269.985 536.146 270.535C536.416 271.075 536.551 271.71 536.551 272.44V273.235H531.046C531.066 274.145 531.296 274.84 531.736 275.32C532.186 275.79 532.811 276.025 533.611 276.025C534.121 276.025 534.571 275.98 534.961 275.89C535.361 275.79 535.771 275.65 536.191 275.47V276.625C535.781 276.805 535.376 276.935 534.976 277.015C534.576 277.105 534.101 277.15 533.551 277.15C532.791 277.15 532.116 276.995 531.526 276.685C530.946 276.375 530.491 275.915 530.161 275.305C529.841 274.685 529.681 273.93 529.681 273.04C529.681 272.16 529.826 271.405 530.116 270.775C530.416 270.145 530.831 269.66 531.361 269.32C531.901 268.98 532.526 268.81 533.236 268.81ZM533.221 269.89C532.591 269.89 532.091 270.095 531.721 270.505C531.361 270.905 531.146 271.465 531.076 272.185H535.171C535.171 271.725 535.101 271.325 534.961 270.985C534.821 270.645 534.606 270.38 534.316 270.19C534.036 269.99 533.671 269.89 533.221 269.89ZM540.075 277L537.03 268.96H538.44L540.15 273.7C540.23 273.92 540.315 274.165 540.405 274.435C540.495 274.705 540.575 274.965 540.645 275.215C540.715 275.455 540.765 275.66 540.795 275.83H540.855C540.895 275.66 540.95 275.45 541.02 275.2C541.1 274.95 541.185 274.69 541.275 274.42C541.375 274.15 541.46 273.91 541.53 273.7L543.24 268.96H544.65L541.59 277H540.075ZM547.242 268.96V277H545.922V268.96H547.242ZM546.597 265.945C546.797 265.945 546.972 266.015 547.122 266.155C547.282 266.285 547.362 266.495 547.362 266.785C547.362 267.065 547.282 267.275 547.122 267.415C546.972 267.555 546.797 267.625 546.597 267.625C546.377 267.625 546.192 267.555 546.042 267.415C545.892 267.275 545.817 267.065 545.817 266.785C545.817 266.495 545.892 266.285 546.042 266.155C546.192 266.015 546.377 265.945 546.597 265.945ZM553.66 268.81C554.62 268.81 555.345 269.045 555.835 269.515C556.325 269.975 556.57 270.725 556.57 271.765V277H555.265V271.855C555.265 271.205 555.12 270.72 554.83 270.4C554.54 270.08 554.085 269.92 553.465 269.92C552.575 269.92 551.96 270.17 551.62 270.67C551.28 271.17 551.11 271.89 551.11 272.83V277H549.79V268.96H550.855L551.05 270.055H551.125C551.305 269.775 551.525 269.545 551.785 269.365C552.055 269.175 552.35 269.035 552.67 268.945C552.99 268.855 553.32 268.81 553.66 268.81ZM561.912 268.81C562.442 268.81 562.917 268.91 563.337 269.11C563.767 269.31 564.132 269.615 564.432 270.025H564.507L564.687 268.96H565.737V277.135C565.737 277.895 565.607 278.53 565.347 279.04C565.087 279.56 564.692 279.95 564.162 280.21C563.632 280.47 562.957 280.6 562.137 280.6C561.557 280.6 561.022 280.555 560.532 280.465C560.052 280.385 559.622 280.26 559.242 280.09V278.875C559.502 279.005 559.787 279.115 560.097 279.205C560.407 279.305 560.742 279.38 561.102 279.43C561.462 279.48 561.832 279.505 562.212 279.505C562.902 279.505 563.442 279.3 563.832 278.89C564.232 278.49 564.432 277.94 564.432 277.24V276.925C564.432 276.805 564.437 276.635 564.447 276.415C564.457 276.185 564.467 276.025 564.477 275.935H564.417C564.137 276.345 563.787 276.65 563.367 276.85C562.957 277.05 562.477 277.15 561.927 277.15C560.887 277.15 560.072 276.785 559.482 276.055C558.902 275.325 558.612 274.305 558.612 272.995C558.612 272.135 558.742 271.395 559.002 270.775C559.272 270.145 559.652 269.66 560.142 269.32C560.632 268.98 561.222 268.81 561.912 268.81ZM562.092 269.92C561.642 269.92 561.257 270.04 560.937 270.28C560.627 270.52 560.387 270.87 560.217 271.33C560.057 271.79 559.977 272.35 559.977 273.01C559.977 274 560.157 274.76 560.517 275.29C560.887 275.81 561.422 276.07 562.122 276.07C562.532 276.07 562.882 276.02 563.172 275.92C563.462 275.81 563.702 275.645 563.892 275.425C564.082 275.195 564.222 274.905 564.312 274.555C564.402 274.205 564.447 273.79 564.447 273.31V272.995C564.447 272.265 564.362 271.675 564.192 271.225C564.032 270.775 563.777 270.445 563.427 270.235C563.077 270.025 562.632 269.92 562.092 269.92ZM510.452 297L509.162 293.685H504.917L503.642 297H502.277L506.462 286.245H507.677L511.847 297H510.452ZM507.557 289.245C507.527 289.165 507.477 289.02 507.407 288.81C507.337 288.6 507.267 288.385 507.197 288.165C507.137 287.935 507.087 287.76 507.047 287.64C506.997 287.84 506.942 288.045 506.882 288.255C506.832 288.455 506.777 288.64 506.717 288.81C506.667 288.98 506.622 289.125 506.582 289.245L505.367 292.485H508.757L507.557 289.245ZM517.002 288.81C517.962 288.81 518.687 289.045 519.177 289.515C519.667 289.975 519.912 290.725 519.912 291.765V297H518.607V291.855C518.607 291.205 518.462 290.72 518.172 290.4C517.882 290.08 517.427 289.92 516.807 289.92C515.917 289.92 515.302 290.17 514.962 290.67C514.622 291.17 514.452 291.89 514.452 292.83V297H513.132V288.96H514.197L514.392 290.055H514.467C514.647 289.775 514.867 289.545 515.127 289.365C515.397 289.175 515.692 289.035 516.012 288.945C516.332 288.855 516.662 288.81 517.002 288.81ZM525.449 288.825C526.429 288.825 527.154 289.04 527.624 289.47C528.094 289.9 528.329 290.585 528.329 291.525V297H527.369L527.114 295.86H527.054C526.824 296.15 526.584 296.395 526.334 296.595C526.094 296.785 525.814 296.925 525.494 297.015C525.184 297.105 524.804 297.15 524.354 297.15C523.874 297.15 523.439 297.065 523.049 296.895C522.669 296.725 522.369 296.465 522.149 296.115C521.929 295.755 521.819 295.305 521.819 294.765C521.819 293.965 522.134 293.35 522.764 292.92C523.394 292.48 524.364 292.24 525.674 292.2L527.039 292.155V291.675C527.039 291.005 526.894 290.54 526.604 290.28C526.314 290.02 525.904 289.89 525.374 289.89C524.954 289.89 524.554 289.955 524.174 290.085C523.794 290.205 523.439 290.345 523.109 290.505L522.704 289.515C523.054 289.325 523.469 289.165 523.949 289.035C524.429 288.895 524.929 288.825 525.449 288.825ZM525.839 293.115C524.839 293.155 524.144 293.315 523.754 293.595C523.374 293.875 523.184 294.27 523.184 294.78C523.184 295.23 523.319 295.56 523.589 295.77C523.869 295.98 524.224 296.085 524.654 296.085C525.334 296.085 525.899 295.9 526.349 295.53C526.799 295.15 527.024 294.57 527.024 293.79V293.07L525.839 293.115ZM532.133 297H530.813V285.6H532.133V297ZM533.42 288.96H534.83L536.57 293.535C536.67 293.805 536.76 294.065 536.84 294.315C536.93 294.565 537.01 294.81 537.08 295.05C537.15 295.28 537.205 295.505 537.245 295.725H537.305C537.365 295.475 537.46 295.15 537.59 294.75C537.72 294.34 537.855 293.93 537.995 293.52L539.63 288.96H541.055L537.59 298.11C537.4 298.61 537.175 299.045 536.915 299.415C536.665 299.795 536.355 300.085 535.985 300.285C535.625 300.495 535.185 300.6 534.665 300.6C534.425 300.6 534.215 300.585 534.035 300.555C533.855 300.535 533.7 300.51 533.57 300.48V299.43C533.68 299.45 533.81 299.47 533.96 299.49C534.12 299.51 534.285 299.52 534.455 299.52C534.765 299.52 535.03 299.46 535.25 299.34C535.48 299.23 535.675 299.065 535.835 298.845C535.995 298.635 536.13 298.385 536.24 298.095L536.66 297.03L533.42 288.96ZM545.011 296.07C545.211 296.07 545.416 296.055 545.626 296.025C545.836 295.985 546.006 295.945 546.136 295.905V296.91C545.996 296.98 545.796 297.035 545.536 297.075C545.276 297.125 545.026 297.15 544.786 297.15C544.366 297.15 543.976 297.08 543.616 296.94C543.266 296.79 542.981 296.535 542.761 296.175C542.541 295.815 542.431 295.31 542.431 294.66V289.98H541.291V289.35L542.446 288.825L542.971 287.115H543.751V288.96H546.076V289.98H543.751V294.63C543.751 295.12 543.866 295.485 544.096 295.725C544.336 295.955 544.641 296.07 545.011 296.07ZM549.066 288.96V297H547.746V288.96H549.066ZM548.421 285.945C548.621 285.945 548.796 286.015 548.946 286.155C549.106 286.285 549.186 286.495 549.186 286.785C549.186 287.065 549.106 287.275 548.946 287.415C548.796 287.555 548.621 287.625 548.421 287.625C548.201 287.625 548.016 287.555 547.866 287.415C547.716 287.275 547.641 287.065 547.641 286.785C547.641 286.495 547.716 286.285 547.866 286.155C548.016 286.015 548.201 285.945 548.421 285.945ZM554.838 297.15C554.128 297.15 553.493 297.005 552.933 296.715C552.383 296.425 551.948 295.975 551.628 295.365C551.318 294.755 551.163 293.975 551.163 293.025C551.163 292.035 551.328 291.23 551.658 290.61C551.988 289.99 552.433 289.535 552.993 289.245C553.563 288.955 554.208 288.81 554.928 288.81C555.338 288.81 555.733 288.855 556.113 288.945C556.493 289.025 556.803 289.125 557.043 289.245L556.638 290.34C556.398 290.25 556.118 290.165 555.798 290.085C555.478 290.005 555.178 289.965 554.898 289.965C554.358 289.965 553.913 290.08 553.563 290.31C553.213 290.54 552.953 290.88 552.783 291.33C552.613 291.78 552.528 292.34 552.528 293.01C552.528 293.65 552.613 294.195 552.783 294.645C552.953 295.095 553.208 295.435 553.548 295.665C553.888 295.895 554.313 296.01 554.823 296.01C555.263 296.01 555.648 295.965 555.978 295.875C556.318 295.785 556.628 295.675 556.908 295.545V296.715C556.638 296.855 556.338 296.96 556.008 297.03C555.688 297.11 555.298 297.15 554.838 297.15ZM564.055 294.78C564.055 295.3 563.925 295.735 563.665 296.085C563.405 296.435 563.035 296.7 562.555 296.88C562.075 297.06 561.505 297.15 560.845 297.15C560.285 297.15 559.8 297.105 559.39 297.015C558.99 296.925 558.635 296.8 558.325 296.64V295.44C558.645 295.6 559.03 295.75 559.48 295.89C559.94 296.02 560.405 296.085 560.875 296.085C561.545 296.085 562.03 295.98 562.33 295.77C562.63 295.55 562.78 295.26 562.78 294.9C562.78 294.7 562.725 294.52 562.615 294.36C562.505 294.2 562.305 294.04 562.015 293.88C561.735 293.72 561.33 293.54 560.8 293.34C560.28 293.14 559.835 292.94 559.465 292.74C559.095 292.54 558.81 292.3 558.61 292.02C558.41 291.74 558.31 291.38 558.31 290.94C558.31 290.26 558.585 289.735 559.135 289.365C559.695 288.995 560.425 288.81 561.325 288.81C561.815 288.81 562.27 288.86 562.69 288.96C563.12 289.05 563.52 289.18 563.89 289.35L563.44 290.4C563.22 290.3 562.985 290.215 562.735 290.145C562.495 290.065 562.25 290.005 562 289.965C561.75 289.915 561.495 289.89 561.235 289.89C560.695 289.89 560.28 289.98 559.99 290.16C559.71 290.33 559.57 290.565 559.57 290.865C559.57 291.085 559.635 291.275 559.765 291.435C559.895 291.585 560.11 291.735 560.41 291.885C560.72 292.025 561.13 292.195 561.64 292.395C562.15 292.585 562.585 292.78 562.945 292.98C563.305 293.18 563.58 293.425 563.77 293.715C563.96 293.995 564.055 294.35 564.055 294.78Z" fill="black"/>
<path d="M116.056 275.135C116.056 275.775 115.901 276.32 115.591 276.77C115.281 277.21 114.836 277.55 114.256 277.79C113.686 278.03 113.011 278.15 112.231 278.15C111.831 278.15 111.446 278.13 111.076 278.09C110.716 278.05 110.386 277.995 110.086 277.925C109.786 277.845 109.521 277.75 109.291 277.64V276.35C109.651 276.51 110.096 276.655 110.626 276.785C111.166 276.915 111.721 276.98 112.291 276.98C112.821 276.98 113.266 276.91 113.626 276.77C113.986 276.63 114.256 276.43 114.436 276.17C114.616 275.91 114.706 275.605 114.706 275.255C114.706 274.905 114.631 274.61 114.481 274.37C114.331 274.13 114.071 273.91 113.701 273.71C113.341 273.5 112.836 273.28 112.186 273.05C111.726 272.88 111.321 272.7 110.971 272.51C110.631 272.31 110.346 272.085 110.116 271.835C109.886 271.585 109.711 271.3 109.591 270.98C109.481 270.66 109.426 270.29 109.426 269.87C109.426 269.3 109.571 268.815 109.861 268.415C110.151 268.005 110.551 267.69 111.061 267.47C111.581 267.25 112.176 267.14 112.846 267.14C113.436 267.14 113.976 267.195 114.466 267.305C114.956 267.415 115.401 267.56 115.801 267.74L115.381 268.895C115.011 268.735 114.606 268.6 114.166 268.49C113.736 268.38 113.286 268.325 112.816 268.325C112.366 268.325 111.991 268.39 111.691 268.52C111.391 268.65 111.166 268.835 111.016 269.075C110.866 269.305 110.791 269.575 110.791 269.885C110.791 270.245 110.866 270.545 111.016 270.785C111.166 271.025 111.411 271.24 111.751 271.43C112.091 271.62 112.551 271.825 113.131 272.045C113.761 272.275 114.291 272.525 114.721 272.795C115.161 273.055 115.491 273.37 115.711 273.74C115.941 274.11 116.056 274.575 116.056 275.135ZM120.719 277.07C120.919 277.07 121.124 277.055 121.334 277.025C121.544 276.985 121.714 276.945 121.844 276.905V277.91C121.704 277.98 121.504 278.035 121.244 278.075C120.984 278.125 120.734 278.15 120.494 278.15C120.074 278.15 119.684 278.08 119.324 277.94C118.974 277.79 118.689 277.535 118.469 277.175C118.249 276.815 118.139 276.31 118.139 275.66V270.98H116.999V270.35L118.154 269.825L118.679 268.115H119.459V269.96H121.784V270.98H119.459V275.63C119.459 276.12 119.574 276.485 119.804 276.725C120.044 276.955 120.349 277.07 120.719 277.07ZM126.499 269.825C127.479 269.825 128.204 270.04 128.674 270.47C129.144 270.9 129.379 271.585 129.379 272.525V278H128.419L128.164 276.86H128.104C127.874 277.15 127.634 277.395 127.384 277.595C127.144 277.785 126.864 277.925 126.544 278.015C126.234 278.105 125.854 278.15 125.404 278.15C124.924 278.15 124.489 278.065 124.099 277.895C123.719 277.725 123.419 277.465 123.199 277.115C122.979 276.755 122.869 276.305 122.869 275.765C122.869 274.965 123.184 274.35 123.814 273.92C124.444 273.48 125.414 273.24 126.724 273.2L128.089 273.155V272.675C128.089 272.005 127.944 271.54 127.654 271.28C127.364 271.02 126.954 270.89 126.424 270.89C126.004 270.89 125.604 270.955 125.224 271.085C124.844 271.205 124.489 271.345 124.159 271.505L123.754 270.515C124.104 270.325 124.519 270.165 124.999 270.035C125.479 269.895 125.979 269.825 126.499 269.825ZM126.889 274.115C125.889 274.155 125.194 274.315 124.804 274.595C124.424 274.875 124.234 275.27 124.234 275.78C124.234 276.23 124.369 276.56 124.639 276.77C124.919 276.98 125.274 277.085 125.704 277.085C126.384 277.085 126.949 276.9 127.399 276.53C127.849 276.15 128.074 275.57 128.074 274.79V274.07L126.889 274.115ZM134.547 277.07C134.747 277.07 134.952 277.055 135.162 277.025C135.372 276.985 135.542 276.945 135.672 276.905V277.91C135.532 277.98 135.332 278.035 135.072 278.075C134.812 278.125 134.562 278.15 134.322 278.15C133.902 278.15 133.512 278.08 133.152 277.94C132.802 277.79 132.517 277.535 132.297 277.175C132.077 276.815 131.967 276.31 131.967 275.66V270.98H130.827V270.35L131.982 269.825L132.507 268.115H133.287V269.96H135.612V270.98H133.287V275.63C133.287 276.12 133.402 276.485 133.632 276.725C133.872 276.955 134.177 277.07 134.547 277.07ZM140.387 269.81C141.077 269.81 141.667 269.96 142.157 270.26C142.657 270.56 143.037 270.985 143.297 271.535C143.567 272.075 143.702 272.71 143.702 273.44V274.235H138.197C138.217 275.145 138.447 275.84 138.887 276.32C139.337 276.79 139.962 277.025 140.762 277.025C141.272 277.025 141.722 276.98 142.112 276.89C142.512 276.79 142.922 276.65 143.342 276.47V277.625C142.932 277.805 142.527 277.935 142.127 278.015C141.727 278.105 141.252 278.15 140.702 278.15C139.942 278.15 139.267 277.995 138.677 277.685C138.097 277.375 137.642 276.915 137.312 276.305C136.992 275.685 136.832 274.93 136.832 274.04C136.832 273.16 136.977 272.405 137.267 271.775C137.567 271.145 137.982 270.66 138.512 270.32C139.052 269.98 139.677 269.81 140.387 269.81ZM140.372 270.89C139.742 270.89 139.242 271.095 138.872 271.505C138.512 271.905 138.297 272.465 138.227 273.185H142.322C142.322 272.725 142.252 272.325 142.112 271.985C141.972 271.645 141.757 271.38 141.467 271.19C141.187 270.99 140.822 270.89 140.372 270.89ZM91.6594 295.135C91.6594 295.775 91.5044 296.32 91.1944 296.77C90.8844 297.21 90.4394 297.55 89.8594 297.79C89.2894 298.03 88.6144 298.15 87.8344 298.15C87.4344 298.15 87.0494 298.13 86.6794 298.09C86.3194 298.05 85.9894 297.995 85.6894 297.925C85.3894 297.845 85.1244 297.75 84.8944 297.64V296.35C85.2544 296.51 85.6994 296.655 86.2294 296.785C86.7694 296.915 87.3244 296.98 87.8944 296.98C88.4244 296.98 88.8694 296.91 89.2294 296.77C89.5894 296.63 89.8594 296.43 90.0394 296.17C90.2194 295.91 90.3094 295.605 90.3094 295.255C90.3094 294.905 90.2344 294.61 90.0844 294.37C89.9344 294.13 89.6744 293.91 89.3044 293.71C88.9444 293.5 88.4394 293.28 87.7894 293.05C87.3294 292.88 86.9244 292.7 86.5744 292.51C86.2344 292.31 85.9494 292.085 85.7194 291.835C85.4894 291.585 85.3144 291.3 85.1944 290.98C85.0844 290.66 85.0294 290.29 85.0294 289.87C85.0294 289.3 85.1744 288.815 85.4644 288.415C85.7544 288.005 86.1544 287.69 86.6644 287.47C87.1844 287.25 87.7794 287.14 88.4494 287.14C89.0394 287.14 89.5794 287.195 90.0694 287.305C90.5594 287.415 91.0044 287.56 91.4044 287.74L90.9844 288.895C90.6144 288.735 90.2094 288.6 89.7694 288.49C89.3394 288.38 88.8894 288.325 88.4194 288.325C87.9694 288.325 87.5944 288.39 87.2944 288.52C86.9944 288.65 86.7694 288.835 86.6194 289.075C86.4694 289.305 86.3944 289.575 86.3944 289.885C86.3944 290.245 86.4694 290.545 86.6194 290.785C86.7694 291.025 87.0144 291.24 87.3544 291.43C87.6944 291.62 88.1544 291.825 88.7344 292.045C89.3644 292.275 89.8944 292.525 90.3244 292.795C90.7644 293.055 91.0944 293.37 91.3144 293.74C91.5444 294.11 91.6594 294.575 91.6594 295.135ZM100.357 289.96V298H99.2768L99.0818 296.935H99.0218C98.8518 297.215 98.6318 297.445 98.3618 297.625C98.0918 297.805 97.7968 297.935 97.4768 298.015C97.1568 298.105 96.8218 298.15 96.4718 298.15C95.8318 298.15 95.2918 298.05 94.8518 297.85C94.4218 297.64 94.0968 297.32 93.8768 296.89C93.6568 296.46 93.5468 295.905 93.5468 295.225V289.96H94.8818V295.135C94.8818 295.775 95.0268 296.255 95.3168 296.575C95.6068 296.895 96.0568 297.055 96.6668 297.055C97.2668 297.055 97.7368 296.945 98.0768 296.725C98.4268 296.495 98.6718 296.165 98.8118 295.735C98.9618 295.295 99.0368 294.765 99.0368 294.145V289.96H100.357ZM106.659 289.81C106.809 289.81 106.969 289.82 107.139 289.84C107.319 289.85 107.474 289.87 107.604 289.9L107.439 291.115C107.309 291.085 107.164 291.06 107.004 291.04C106.854 291.02 106.709 291.01 106.569 291.01C106.259 291.01 105.964 291.075 105.684 291.205C105.404 291.335 105.154 291.52 104.934 291.76C104.714 291.99 104.539 292.27 104.409 292.6C104.289 292.93 104.229 293.3 104.229 293.71V298H102.909V289.96H103.989L104.139 291.43H104.199C104.369 291.13 104.574 290.86 104.814 290.62C105.054 290.37 105.329 290.175 105.639 290.035C105.949 289.885 106.289 289.81 106.659 289.81ZM110.876 298L107.831 289.96H109.241L110.951 294.7C111.031 294.92 111.116 295.165 111.206 295.435C111.296 295.705 111.376 295.965 111.446 296.215C111.516 296.455 111.566 296.66 111.596 296.83H111.656C111.696 296.66 111.751 296.45 111.821 296.2C111.901 295.95 111.986 295.69 112.076 295.42C112.176 295.15 112.261 294.91 112.331 294.7L114.041 289.96H115.451L112.391 298H110.876ZM119.828 289.81C120.518 289.81 121.108 289.96 121.598 290.26C122.098 290.56 122.478 290.985 122.738 291.535C123.008 292.075 123.143 292.71 123.143 293.44V294.235H117.638C117.658 295.145 117.888 295.84 118.328 296.32C118.778 296.79 119.403 297.025 120.203 297.025C120.713 297.025 121.163 296.98 121.553 296.89C121.953 296.79 122.363 296.65 122.783 296.47V297.625C122.373 297.805 121.968 297.935 121.568 298.015C121.168 298.105 120.693 298.15 120.143 298.15C119.383 298.15 118.708 297.995 118.118 297.685C117.538 297.375 117.083 296.915 116.753 296.305C116.433 295.685 116.273 294.93 116.273 294.04C116.273 293.16 116.418 292.405 116.708 291.775C117.008 291.145 117.423 290.66 117.953 290.32C118.493 289.98 119.118 289.81 119.828 289.81ZM119.813 290.89C119.183 290.89 118.683 291.095 118.313 291.505C117.953 291.905 117.738 292.465 117.668 293.185H121.763C121.763 292.725 121.693 292.325 121.553 291.985C121.413 291.645 121.198 291.38 120.908 291.19C120.628 290.99 120.263 290.89 119.813 290.89ZM126.51 289.96V298H125.19V289.96H126.51ZM125.865 286.945C126.065 286.945 126.24 287.015 126.39 287.155C126.55 287.285 126.63 287.495 126.63 287.785C126.63 288.065 126.55 288.275 126.39 288.415C126.24 288.555 126.065 288.625 125.865 288.625C125.645 288.625 125.46 288.555 125.31 288.415C125.16 288.275 125.085 288.065 125.085 287.785C125.085 287.495 125.16 287.285 125.31 287.155C125.46 287.015 125.645 286.945 125.865 286.945ZM130.377 298H129.057V286.6H130.377V298ZM134.244 298H132.924V286.6H134.244V298ZM139.836 289.825C140.816 289.825 141.541 290.04 142.011 290.47C142.481 290.9 142.716 291.585 142.716 292.525V298H141.756L141.501 296.86H141.441C141.211 297.15 140.971 297.395 140.721 297.595C140.481 297.785 140.201 297.925 139.881 298.015C139.571 298.105 139.191 298.15 138.741 298.15C138.261 298.15 137.826 298.065 137.436 297.895C137.056 297.725 136.756 297.465 136.536 297.115C136.316 296.755 136.206 296.305 136.206 295.765C136.206 294.965 136.521 294.35 137.151 293.92C137.781 293.48 138.751 293.24 140.061 293.2L141.426 293.155V292.675C141.426 292.005 141.281 291.54 140.991 291.28C140.701 291.02 140.291 290.89 139.761 290.89C139.341 290.89 138.941 290.955 138.561 291.085C138.181 291.205 137.826 291.345 137.496 291.505L137.091 290.515C137.441 290.325 137.856 290.165 138.336 290.035C138.816 289.895 139.316 289.825 139.836 289.825ZM140.226 294.115C139.226 294.155 138.531 294.315 138.141 294.595C137.761 294.875 137.571 295.27 137.571 295.78C137.571 296.23 137.706 296.56 137.976 296.77C138.256 296.98 138.611 297.085 139.041 297.085C139.721 297.085 140.286 296.9 140.736 296.53C141.186 296.15 141.411 295.57 141.411 294.79V294.07L140.226 294.115ZM149.069 289.81C150.029 289.81 150.754 290.045 151.244 290.515C151.734 290.975 151.979 291.725 151.979 292.765V298H150.674V292.855C150.674 292.205 150.529 291.72 150.239 291.4C149.949 291.08 149.494 290.92 148.874 290.92C147.984 290.92 147.369 291.17 147.029 291.67C146.689 292.17 146.519 292.89 146.519 293.83V298H145.199V289.96H146.264L146.459 291.055H146.534C146.714 290.775 146.934 290.545 147.194 290.365C147.464 290.175 147.759 290.035 148.079 289.945C148.399 289.855 148.729 289.81 149.069 289.81ZM157.697 298.15C156.987 298.15 156.352 298.005 155.792 297.715C155.242 297.425 154.807 296.975 154.487 296.365C154.177 295.755 154.022 294.975 154.022 294.025C154.022 293.035 154.187 292.23 154.517 291.61C154.847 290.99 155.292 290.535 155.852 290.245C156.422 289.955 157.067 289.81 157.787 289.81C158.197 289.81 158.592 289.855 158.972 289.945C159.352 290.025 159.662 290.125 159.902 290.245L159.497 291.34C159.257 291.25 158.977 291.165 158.657 291.085C158.337 291.005 158.037 290.965 157.757 290.965C157.217 290.965 156.772 291.08 156.422 291.31C156.072 291.54 155.812 291.88 155.642 292.33C155.472 292.78 155.387 293.34 155.387 294.01C155.387 294.65 155.472 295.195 155.642 295.645C155.812 296.095 156.067 296.435 156.407 296.665C156.747 296.895 157.172 297.01 157.682 297.01C158.122 297.01 158.507 296.965 158.837 296.875C159.177 296.785 159.487 296.675 159.767 296.545V297.715C159.497 297.855 159.197 297.96 158.867 298.03C158.547 298.11 158.157 298.15 157.697 298.15ZM164.784 289.81C165.474 289.81 166.064 289.96 166.554 290.26C167.054 290.56 167.434 290.985 167.694 291.535C167.964 292.075 168.099 292.71 168.099 293.44V294.235H162.594C162.614 295.145 162.844 295.84 163.284 296.32C163.734 296.79 164.359 297.025 165.159 297.025C165.669 297.025 166.119 296.98 166.509 296.89C166.909 296.79 167.319 296.65 167.739 296.47V297.625C167.329 297.805 166.924 297.935 166.524 298.015C166.124 298.105 165.649 298.15 165.099 298.15C164.339 298.15 163.664 297.995 163.074 297.685C162.494 297.375 162.039 296.915 161.709 296.305C161.389 295.685 161.229 294.93 161.229 294.04C161.229 293.16 161.374 292.405 161.664 291.775C161.964 291.145 162.379 290.66 162.909 290.32C163.449 289.98 164.074 289.81 164.784 289.81ZM164.769 290.89C164.139 290.89 163.639 291.095 163.269 291.505C162.909 291.905 162.694 292.465 162.624 293.185H166.719C166.719 292.725 166.649 292.325 166.509 291.985C166.369 291.645 166.154 291.38 165.864 291.19C165.584 290.99 165.219 290.89 164.769 290.89Z" fill="black"/>
<path d="M483.178 68.9318H584.656V189.173H483.178V68.9318Z" fill="#DBD8DD"/>
<path d="M505.345 50.6667H562.487V189.172H505.345V50.6667Z" fill="#EEEFEE"/>
<path d="M487.753 74.4095H500.789V90.5741H487.753V74.4095Z" fill="#69B0EE"/>
<path d="M487.753 97.6938H500.789V113.858H487.753V97.6938Z" fill="#69B0EE"/>
<path d="M487.753 120.976H500.789V137.141H487.753V120.976Z" fill="#69B0EE"/>
<path d="M487.753 144.261H500.789V160.425H487.753V144.261Z" fill="#69B0EE"/>
<path d="M487.753 167.543H500.789V183.708H487.753V167.543Z" fill="#69B0EE"/>
<path d="M566.535 74.4095H579.571V90.5741H566.535V74.4095Z" fill="#69B0EE"/>
<path d="M566.535 97.6938H579.571V113.858H566.535V97.6938Z" fill="#69B0EE"/>
<path d="M566.535 120.976H579.571V137.141H566.535V120.976Z" fill="#69B0EE"/>
<path d="M566.535 144.261H579.571V160.425H566.535V144.261Z" fill="#69B0EE"/>
<path d="M566.535 167.543H579.571V183.708H566.535V167.543Z" fill="#69B0EE"/>
<path d="M511.206 57.5233H556.626V66.4399H511.206V57.5233Z" fill="#69B0EE"/>
<path d="M511.201 73.5647H556.633V82.4813H511.201V73.5647Z" fill="#69B0EE"/>
<path d="M511.201 89.6151H556.633V98.5317H511.201V89.6151Z" fill="#69B0EE"/>
<path d="M511.201 105.665H556.633V114.582H511.201V105.665Z" fill="#69B0EE"/>
<path d="M511.201 121.715H556.633V130.632H511.201V121.715Z" fill="#69B0EE"/>
<path d="M511.201 137.766H556.633V146.682H511.201V137.766Z" fill="#69B0EE"/>
<path d="M513.638 153.749H554.198V189.172H513.638V153.749Z" fill="#575B6D"/>
<path opacity="0.5" d="M569.078 183.708H568.589L574.081 167.543H574.571L569.078 183.708Z" fill="#EEEFEE"/>
<path opacity="0.5" d="M572.698 183.708H569.853L575.345 167.543H578.189L572.698 183.708Z" fill="#EEEFEE"/>
<path opacity="0.5" d="M569.078 160.424H568.589L574.081 144.261H574.571L569.078 160.424Z" fill="#EEEFEE"/>
<path opacity="0.5" d="M572.698 160.424H569.853L575.345 144.261H578.189L572.698 160.424Z" fill="#EEEFEE"/>
<path opacity="0.5" d="M569.078 137.141H568.589L574.081 120.976H574.571L569.078 137.141Z" fill="#EEEFEE"/>
<path opacity="0.5" d="M572.698 137.141H569.853L575.345 120.976H578.189L572.698 137.141Z" fill="#EEEFEE"/>
<path opacity="0.5" d="M569.078 113.858H568.589L574.081 97.6938H574.571L569.078 113.858Z" fill="#EEEFEE"/>
<path opacity="0.5" d="M572.698 113.858H569.853L575.345 97.6938H578.189L572.698 113.858Z" fill="#EEEFEE"/>
<path opacity="0.5" d="M569.078 90.5744H568.589L574.081 74.4095H574.571L569.078 90.5744Z" fill="#EEEFEE"/>
<path opacity="0.5" d="M572.698 90.5744H569.853L575.345 74.4095H578.189L572.698 90.5744Z" fill="#EEEFEE"/>
<path opacity="0.5" d="M534.493 57.5233L529.548 66.4399H528.011L532.927 57.5233H534.493Z" fill="#EEEFEE"/>
<path opacity="0.5" d="M545.476 57.5233L540.561 66.4399H532.816L537.732 57.5233H545.476Z" fill="#EEEFEE"/>
<path opacity="0.5" d="M534.493 73.5665L529.548 82.4813H528.011L532.927 73.5665H534.493Z" fill="#EEEFEE"/>
<path opacity="0.5" d="M545.476 73.5665L540.561 82.4813H532.816L537.732 73.5665H545.476Z" fill="#EEEFEE"/>
<path opacity="0.5" d="M534.493 89.6079L529.548 98.5245H528.011L532.927 89.6079H534.493Z" fill="#EEEFEE"/>
<path opacity="0.5" d="M545.476 89.6079L540.561 98.5245H532.816L537.732 89.6079H545.476Z" fill="#EEEFEE"/>
<path opacity="0.5" d="M534.493 105.649L529.548 114.566H528.011L532.927 105.649H534.493Z" fill="#EEEFEE"/>
<path opacity="0.5" d="M545.476 105.649L540.561 114.566H532.816L537.732 105.649H545.476Z" fill="#EEEFEE"/>
<path opacity="0.5" d="M534.493 121.692L529.548 130.607H528.011L532.927 121.692H534.493Z" fill="#EEEFEE"/>
<path opacity="0.5" d="M545.476 121.692L540.561 130.607H532.816L537.732 121.692H545.476Z" fill="#EEEFEE"/>
<path opacity="0.5" d="M534.493 137.734L529.548 146.65H528.011L532.927 137.734H534.493Z" fill="#EEEFEE"/>
<path opacity="0.5" d="M545.476 137.734L540.561 146.65H532.816L537.732 137.734H545.476Z" fill="#EEEFEE"/>
<path opacity="0.5" d="M489.96 183.708H489.472L494.963 167.543H495.453L489.96 183.708Z" fill="#EEEFEE"/>
<path opacity="0.5" d="M493.58 183.708H490.735L496.227 167.543H499.072L493.58 183.708Z" fill="#EEEFEE"/>
<path opacity="0.5" d="M489.96 160.424H489.472L494.963 144.261H495.453L489.96 160.424Z" fill="#EEEFEE"/>
<path opacity="0.5" d="M493.58 160.424H490.735L496.227 144.261H499.072L493.58 160.424Z" fill="#EEEFEE"/>
<path opacity="0.5" d="M489.96 137.141H489.472L494.963 120.976H495.453L489.96 137.141Z" fill="#EEEFEE"/>
<path opacity="0.5" d="M493.58 137.141H490.735L496.227 120.976H499.072L493.58 137.141Z" fill="#EEEFEE"/>
<path opacity="0.5" d="M489.96 113.858H489.472L494.963 97.6938H495.453L489.96 113.858Z" fill="#EEEFEE"/>
<path opacity="0.5" d="M493.58 113.858H490.735L496.227 97.6938H499.072L493.58 113.858Z" fill="#EEEFEE"/>
<path opacity="0.5" d="M489.96 90.5744H489.472L494.963 74.4095H495.453L489.96 90.5744Z" fill="#EEEFEE"/>
<path opacity="0.5" d="M493.58 90.5744H490.735L496.227 74.4095H499.072L493.58 90.5744Z" fill="#EEEFEE"/>
<path d="M477.156 187.835H590.678V195.279H477.156V187.835Z" fill="#BBBBCD"/>
<path d="M531.797 152.343H536.037V187.787H531.797V152.343Z" fill="#EEEFEE"/>
<path d="M183.918 193.464H70.1227V137.799H93.6669L127.02 102.752L160.375 137.799H183.918V193.464Z" fill="#E6BE94"/>
<path d="M138.792 168.724H115.249V193.464H138.792V168.724Z" fill="#996459"/>
<path d="M138.302 160.477H115.739C115.468 160.477 115.249 160.708 115.249 160.993V168.724H138.792V160.993C138.792 160.708 138.573 160.477 138.302 160.477Z" fill="#4BB9EC"/>
<path d="M145.129 86.2587L148.326 81.2175C148.727 80.5853 148.765 79.772 148.424 79.1015C148.083 78.4309 147.418 78.0121 146.694 78.0121H127.074C125.99 78.0121 125.112 78.9342 125.112 80.0738V92.4436C125.112 93.5831 125.99 94.5052 127.074 94.5052H146.694C147.418 94.5052 148.083 94.0864 148.424 93.4159C148.765 92.7453 148.727 91.932 148.327 91.2999L145.129 86.2587Z" fill="#FF4F19"/>
<path d="M127.074 104.813C125.99 104.813 125.112 103.891 125.112 102.752V75.9505C125.112 74.811 125.99 73.8889 127.074 73.8889C128.159 73.8889 129.036 74.811 129.036 75.9505V102.752C129.036 103.891 128.159 104.813 127.074 104.813Z" fill="#5C546A"/>
<path d="M135.018 112.271C135.321 111.5 136.037 110.998 136.831 110.998H174.108C174.779 110.998 175.404 111.359 175.764 111.953L189.498 134.63C189.883 135.267 189.906 136.07 189.563 136.73C189.218 137.389 188.559 137.799 187.842 137.799H158.413C157.891 137.799 157.393 137.582 157.025 137.195L135.444 114.517C134.882 113.928 134.713 113.042 135.018 112.271Z" fill="#FF4F19"/>
<path d="M119.077 112.271C118.774 111.499 118.057 110.998 117.264 110.998H79.9864C79.3159 110.998 78.6912 111.359 78.331 111.953L64.597 134.63C64.212 135.267 64.189 136.07 64.5318 136.73C64.8769 137.389 65.5359 137.799 66.2525 137.799H95.6823C96.2035 137.799 96.7016 137.582 97.0694 137.195L118.651 114.517C119.213 113.928 119.381 113.042 119.077 112.271Z" fill="#FF4F19"/>
<path d="M160.401 139.833C159.899 139.833 159.397 139.632 159.014 139.229L127.074 105.667L95.1344 139.229C94.368 140.034 93.1263 140.034 92.3599 139.229C91.5935 138.424 91.5935 137.119 92.3599 136.314L125.687 101.294C126.453 100.489 127.695 100.489 128.462 101.294L161.789 136.314C162.555 137.119 162.555 138.424 161.789 139.229C161.405 139.631 160.903 139.833 160.401 139.833Z" fill="#E3001E"/>
<path d="M127.074 150.169C133.576 150.169 138.846 144.631 138.846 137.799C138.846 130.968 133.576 125.43 127.074 125.43C120.573 125.43 115.302 130.968 115.302 137.799C115.302 144.631 120.573 150.169 127.074 150.169Z" fill="#FFEBB7"/>
<path d="M127.074 129.553C125.99 129.553 125.112 130.475 125.112 131.615V135.738H121.188C120.104 135.738 119.226 136.66 119.226 137.799C119.226 138.939 120.104 139.861 121.188 139.861H127.074C128.159 139.861 129.036 138.939 129.036 137.799V131.615C129.036 130.475 128.159 129.553 127.074 129.553Z" fill="#5C546A"/>
<path d="M156.45 151.2C156.45 148.353 154.254 146.046 151.545 146.046C148.836 146.046 146.64 148.353 146.64 151.2C146.64 151.553 146.675 151.898 146.739 152.231H146.64V160.477H156.45V152.231H156.351C156.416 151.898 156.45 151.553 156.45 151.2Z" fill="#4BB9EC"/>
<path d="M151.599 143.984C147.813 143.984 144.732 147.222 144.732 151.2V160.477C144.732 161.617 145.61 162.539 146.694 162.539H156.504C157.588 162.539 158.466 161.617 158.466 160.477V151.2C158.466 147.222 155.385 143.984 151.599 143.984ZM151.599 148.108C153.222 148.108 154.542 149.495 154.542 151.2V152.231H148.656V151.2C148.656 149.495 149.976 148.108 151.599 148.108ZM148.656 158.416V156.354H154.542V158.416H148.656Z" fill="#7E5C62"/>
<path d="M107.455 170.786H97.6446V183.155H107.455V170.786Z" fill="#4BB9EC"/>
<path d="M107.454 168.724H97.6443C96.5598 168.724 95.6823 169.646 95.6823 170.786V183.155C95.6823 184.295 96.5598 185.217 97.6443 185.217H107.454C108.539 185.217 109.416 184.295 109.416 183.155V170.786C109.416 169.646 108.539 168.724 107.454 168.724ZM105.492 172.847V174.909H99.6063V172.847H105.492ZM99.6063 181.094V179.032H105.492V181.094H99.6063Z" fill="#7E5C62"/>
<path d="M89.7429 170.786H79.933V183.155H89.7429V170.786Z" fill="#4BB9EC"/>
<path d="M89.7426 168.724H79.9327C78.8482 168.724 77.9707 169.646 77.9707 170.786V183.155C77.9707 184.295 78.8482 185.217 79.9327 185.217H89.7426C90.8271 185.217 91.7046 184.295 91.7046 183.155V170.786C91.7046 169.646 90.8271 168.724 89.7426 168.724ZM87.7806 172.847V174.909H81.8947V172.847H87.7806ZM81.8947 181.094V179.032H87.7806V181.094H81.8947Z" fill="#7E5C62"/>
<path d="M174.162 170.786H164.352V183.155H174.162V170.786Z" fill="#4BB9EC"/>
<path d="M174.162 168.724H164.352C163.267 168.724 162.39 169.646 162.39 170.786V183.155C162.39 184.295 163.267 185.217 164.352 185.217H174.162C175.246 185.217 176.124 184.295 176.124 183.155V170.786C176.124 169.646 175.246 168.724 174.162 168.724ZM172.2 172.847V174.909H166.314V172.847H172.2ZM166.314 181.094V179.032H172.2V181.094H166.314Z" fill="#7E5C62"/>
<path d="M156.451 170.786H146.641V183.155H156.451V170.786Z" fill="#4BB9EC"/>
<path d="M156.45 168.724H146.64C145.556 168.724 144.678 169.646 144.678 170.786V183.155C144.678 184.295 145.556 185.217 146.64 185.217H156.45C157.535 185.217 158.412 184.295 158.412 183.155V170.786C158.412 169.646 157.535 168.724 156.45 168.724ZM154.488 172.847V174.909H148.602V172.847H154.488ZM148.602 181.094V179.032H154.488V181.094H148.602Z" fill="#7E5C62"/>
<path d="M174.055 151.2C174.055 148.353 171.859 146.046 169.15 146.046C166.441 146.046 164.245 148.353 164.245 151.2C164.245 151.553 164.279 151.898 164.344 152.231H164.245V160.477H174.055V152.231H173.956C174.02 151.898 174.055 151.553 174.055 151.2Z" fill="#4BB9EC"/>
<path d="M169.203 143.984C165.417 143.984 162.336 147.222 162.336 151.2V160.477C162.336 161.617 163.214 162.539 164.298 162.539H174.108C175.193 162.539 176.07 161.617 176.07 160.477V151.2C176.07 147.222 172.989 143.984 169.203 143.984ZM169.203 148.108C170.826 148.108 172.146 149.495 172.146 151.2V152.231H166.26V151.2C166.26 149.495 167.58 148.108 169.203 148.108ZM166.26 158.416V156.354H172.146V158.416H166.26Z" fill="#7E5C62"/>
<path d="M89.6892 151.2C89.6892 148.353 87.4932 146.046 84.7842 146.046C82.0752 146.046 79.8792 148.353 79.8792 151.2C79.8792 151.553 79.9138 151.898 79.9781 152.231H79.8792V160.477H89.6892V152.231H89.5904C89.6546 151.898 89.6892 151.553 89.6892 151.2Z" fill="#4BB9EC"/>
<path d="M84.8377 143.984C81.0515 143.984 77.9707 147.222 77.9707 151.2V160.477C77.9707 161.617 78.8482 162.539 79.9327 162.539H89.7426C90.8271 162.539 91.7046 161.617 91.7046 160.477V151.2C91.7046 147.222 88.6238 143.984 84.8377 143.984ZM84.8377 148.108C86.4605 148.108 87.7806 149.495 87.7806 151.2V152.231H81.8947V151.2C81.8947 149.495 83.2149 148.108 84.8377 148.108ZM81.8947 158.416V156.354H87.7806V158.416H81.8947Z" fill="#7E5C62"/>
<path d="M107.293 151.2C107.293 148.353 105.097 146.046 102.388 146.046C99.6794 146.046 97.4834 148.353 97.4834 151.2C97.4834 151.553 97.518 151.898 97.5822 152.231H97.4834V160.477H107.293V152.231H107.195C107.259 151.898 107.293 151.553 107.293 151.2Z" fill="#4BB9EC"/>
<path d="M102.442 143.984C98.6559 143.984 95.5751 147.222 95.5751 151.2V160.477C95.5751 161.617 96.4526 162.539 97.5371 162.539H107.347C108.432 162.539 109.309 161.617 109.309 160.477V151.2C109.309 147.222 106.228 143.984 102.442 143.984ZM102.442 148.108C104.065 148.108 105.385 149.495 105.385 151.2V152.231H99.4991V151.2C99.4991 149.495 100.819 148.108 102.442 148.108ZM99.4991 158.416V156.354H105.385V158.416H99.4991Z" fill="#7E5C62"/>
<path d="M127.074 152.231C119.501 152.231 113.34 145.757 113.34 137.799C113.34 129.842 119.501 123.368 127.074 123.368C134.647 123.368 140.808 129.842 140.808 137.799C140.808 145.757 134.647 152.231 127.074 152.231ZM127.074 127.491C121.665 127.491 117.264 132.115 117.264 137.799C117.264 143.484 121.665 148.108 127.074 148.108C132.483 148.108 136.884 143.484 136.884 137.799C136.884 132.115 132.483 127.491 127.074 127.491Z" fill="#7E5C62"/>
<path d="M134.922 158.416H119.226C115.981 158.416 113.34 161.19 113.34 164.601V193.464C113.34 194.603 114.218 195.525 115.302 195.525C116.387 195.525 117.264 194.603 117.264 193.464V170.786H125.058V193.464H128.982V170.786H136.884V193.464C136.884 194.603 137.762 195.525 138.846 195.525C139.931 195.525 140.808 194.603 140.808 193.464V164.601C140.808 161.19 138.168 158.416 134.922 158.416ZM136.884 166.662H117.264V164.601C117.264 163.463 118.144 162.539 119.226 162.539H134.922C136.005 162.539 136.884 163.463 136.884 164.601V166.662Z" fill="#7E5C62"/>
<path d="M187.896 195.525H66.2525C65.168 195.525 64.2905 194.603 64.2905 193.464C64.2905 192.324 65.168 191.402 66.2525 191.402H187.896C188.98 191.402 189.858 192.324 189.858 193.464C189.858 194.603 188.98 195.525 187.896 195.525Z" fill="#5C546A"/>
<path d="M266.061 280.061C266.646 279.475 266.646 278.525 266.061 277.939L256.515 268.393C255.929 267.808 254.979 267.808 254.393 268.393C253.808 268.979 253.808 269.929 254.393 270.515L262.879 279L254.393 287.485C253.808 288.071 253.808 289.021 254.393 289.607C254.979 290.192 255.929 290.192 256.515 289.607L266.061 280.061ZM217 280.5H265V277.5H217V280.5Z" fill="black"/>
<path d="M441.061 280.061C441.646 279.475 441.646 278.525 441.061 277.939L431.515 268.393C430.929 267.808 429.979 267.808 429.393 268.393C428.808 268.979 428.808 269.929 429.393 270.515L437.879 279L429.393 287.485C428.808 288.071 428.808 289.021 429.393 289.607C429.979 290.192 430.929 290.192 431.515 289.607L441.061 280.061ZM392 280.5H440V277.5H392V280.5Z" fill="black"/>
<path d="M379.56 300.493C390.984 300.493 400.246 292.151 400.246 281.861C400.246 272.971 393.332 265.541 384.085 263.681C384.872 261.16 385.293 258.501 385.293 255.753C385.293 239.6 370.756 226.507 352.823 226.507C336.044 226.507 322.238 237.97 320.531 252.676C315.96 248.917 309.167 247.755 303.179 250.211C296.74 252.852 293.197 258.872 293.95 264.879C291.354 263.822 288.475 263.229 285.44 263.229C274.015 263.229 264.754 271.571 264.754 281.861C264.754 292.152 274.015 300.493 285.44 300.493H379.56V300.493Z" fill="#93E7F8"/>
<path d="M379.56 302.974H327.451C325.93 302.974 324.697 301.863 324.697 300.493C324.697 299.123 325.93 298.013 327.451 298.013H379.56C389.448 298.013 397.492 290.767 397.492 281.861C397.492 274.362 391.601 267.734 383.485 266.102C382.747 265.954 382.109 265.538 381.721 264.954C381.333 264.369 381.229 263.666 381.434 263.011C382.168 260.659 382.54 258.217 382.54 255.753C382.54 240.994 369.209 228.987 352.823 228.987C337.56 228.987 324.855 239.282 323.27 252.934C323.162 253.865 322.481 254.662 321.509 254.995C320.538 255.327 319.442 255.139 318.674 254.508C314.767 251.295 309.133 250.495 304.32 252.469C299.112 254.606 296.044 259.481 296.687 264.602C296.798 265.488 296.372 266.36 295.571 266.885C294.771 267.411 293.718 267.508 292.816 267.14C290.485 266.191 288.003 265.71 285.44 265.71C275.552 265.709 267.508 272.955 267.508 281.861C267.508 290.767 275.552 298.013 285.44 298.013H305.42C306.941 298.013 308.174 299.123 308.174 300.493C308.174 301.863 306.941 302.974 305.42 302.974H285.44C272.515 302.974 262 293.503 262 281.861C262 270.219 272.515 260.748 285.44 260.748C287.405 260.748 289.333 260.965 291.207 261.394C291.919 255.594 295.945 250.453 302.037 247.954C307.407 245.751 313.499 245.984 318.55 248.404C320.182 242.211 323.863 236.575 329.176 232.238C335.663 226.943 344.061 224.026 352.823 224.026C372.246 224.026 388.048 238.259 388.048 255.753C388.048 257.844 387.821 259.922 387.373 261.958C391.418 263.25 395.043 265.543 397.772 268.572C401.143 272.314 403 277.033 403 281.861C403 293.503 392.485 302.974 379.56 302.974Z" fill="black"/>
<path d="M352.913 238.909C352.909 238.909 352.905 238.909 352.901 238.909H352.823C351.302 238.909 350.069 237.798 350.069 236.428C350.069 235.058 351.302 233.948 352.823 233.948H352.925C354.446 233.954 355.674 235.07 355.667 236.439C355.66 237.806 354.429 238.909 352.913 238.909Z" fill="black"/>
<path d="M374.278 258.233C372.757 258.233 371.524 257.123 371.524 255.753C371.524 249.762 367.944 244.173 362.181 241.166C360.865 240.479 360.416 238.961 361.179 237.776C361.941 236.59 363.626 236.186 364.942 236.873C372.399 240.764 377.032 247.998 377.032 255.753C377.032 257.123 375.799 258.233 374.278 258.233Z" fill="black"/>
<path d="M316.436 302.974C315.709 302.974 315.002 302.709 314.489 302.247C313.974 301.786 313.683 301.146 313.683 300.493C313.683 299.841 313.974 299.201 314.489 298.74C315.002 298.278 315.712 298.013 316.436 298.013C317.161 298.013 317.871 298.278 318.383 298.74C318.896 299.201 319.19 299.841 319.19 300.493C319.19 301.146 318.896 301.786 318.383 302.247C317.871 302.709 317.161 302.974 316.436 302.974Z" fill="black"/>
<path d="M345.918 175.838V174.945C345.918 166.01 338.607 158.698 329.671 158.698C320.735 158.698 313.424 166.01 313.424 174.945V175.838C313.424 178.27 315.395 180.242 317.827 180.242H341.514C343.946 180.242 345.918 178.27 345.918 175.838Z" fill="#CEE8FA"/>
<path d="M341.514 182H317.827C314.43 182 311.666 179.236 311.666 175.838V174.945C311.666 165.017 319.743 156.94 329.671 156.94C339.599 156.94 347.676 165.017 347.676 174.945V175.838C347.676 179.236 344.912 182 341.514 182ZM329.671 160.457C321.682 160.457 315.182 166.956 315.182 174.945V175.838C315.182 177.297 316.369 178.483 317.828 178.483H341.515C342.973 178.483 344.16 177.297 344.16 175.838V174.945C344.16 166.956 337.66 160.457 329.671 160.457Z" fill="#2D527C"/>
<path d="M329.671 160.261C322.173 160.261 316.074 154.161 316.074 146.663C316.074 139.166 322.173 133.066 329.671 133.066C337.169 133.066 343.268 139.166 343.268 146.664C343.268 154.161 337.168 160.261 329.671 160.261ZM329.671 136.583C324.112 136.583 319.59 141.105 319.59 146.664C319.59 152.222 324.112 156.744 329.671 156.744C335.229 156.744 339.752 152.222 339.752 146.664C339.752 141.105 335.229 136.583 329.671 136.583Z" fill="#2D527C"/>
<path d="M355.481 150.649C355.431 150.649 355.38 150.647 355.329 150.643C354.362 150.56 353.645 149.709 353.727 148.741C353.787 148.04 353.818 147.341 353.818 146.663C353.818 133.349 342.985 122.516 329.671 122.516C328.7 122.516 327.912 121.729 327.912 120.758C327.912 119.787 328.7 119 329.671 119C344.925 119 357.334 131.41 357.334 146.664C357.334 147.441 357.3 148.241 357.231 149.041C357.153 149.957 356.384 150.649 355.481 150.649Z" fill="#2D527C"/>
<path d="M348.413 150.65C348.344 150.65 348.275 150.645 348.205 150.637C347.24 150.523 346.551 149.649 346.665 148.685C346.744 148.011 346.785 147.331 346.785 146.664C346.785 137.227 339.107 129.55 329.671 129.55C328.7 129.55 327.912 128.763 327.912 127.791C327.912 126.82 328.7 126.033 329.671 126.033C341.046 126.033 350.301 135.288 350.301 146.663C350.301 147.468 350.253 148.287 350.157 149.097C350.051 149.991 349.292 150.65 348.413 150.65Z" fill="#2D527C"/>
<path d="M317.835 284H316.485V273.29H322.47V274.475H317.835V278.27H322.185V279.455H317.835V284ZM327.188 275.81C327.878 275.81 328.468 275.96 328.958 276.26C329.458 276.56 329.838 276.985 330.098 277.535C330.368 278.075 330.503 278.71 330.503 279.44V280.235H324.998C325.018 281.145 325.248 281.84 325.688 282.32C326.138 282.79 326.763 283.025 327.563 283.025C328.073 283.025 328.523 282.98 328.913 282.89C329.313 282.79 329.723 282.65 330.143 282.47V283.625C329.733 283.805 329.328 283.935 328.928 284.015C328.528 284.105 328.053 284.15 327.503 284.15C326.743 284.15 326.068 283.995 325.478 283.685C324.898 283.375 324.443 282.915 324.113 282.305C323.793 281.685 323.633 280.93 323.633 280.04C323.633 279.16 323.778 278.405 324.068 277.775C324.368 277.145 324.783 276.66 325.313 276.32C325.853 275.98 326.478 275.81 327.188 275.81ZM327.173 276.89C326.543 276.89 326.043 277.095 325.673 277.505C325.313 277.905 325.098 278.465 325.028 279.185H329.123C329.123 278.725 329.053 278.325 328.913 277.985C328.773 277.645 328.558 277.38 328.268 277.19C327.988 276.99 327.623 276.89 327.173 276.89ZM335.655 275.81C336.345 275.81 336.935 275.96 337.425 276.26C337.925 276.56 338.305 276.985 338.565 277.535C338.835 278.075 338.97 278.71 338.97 279.44V280.235H333.465C333.485 281.145 333.715 281.84 334.155 282.32C334.605 282.79 335.23 283.025 336.03 283.025C336.54 283.025 336.99 282.98 337.38 282.89C337.78 282.79 338.19 282.65 338.61 282.47V283.625C338.2 283.805 337.795 283.935 337.395 284.015C336.995 284.105 336.52 284.15 335.97 284.15C335.21 284.15 334.535 283.995 333.945 283.685C333.365 283.375 332.91 282.915 332.58 282.305C332.26 281.685 332.1 280.93 332.1 280.04C332.1 279.16 332.245 278.405 332.535 277.775C332.835 277.145 333.25 276.66 333.78 276.32C334.32 275.98 334.945 275.81 335.655 275.81ZM335.64 276.89C335.01 276.89 334.51 277.095 334.14 277.505C333.78 277.905 333.565 278.465 333.495 279.185H337.59C337.59 278.725 337.52 278.325 337.38 277.985C337.24 277.645 337.025 277.38 336.735 277.19C336.455 276.99 336.09 276.89 335.64 276.89ZM343.867 284.15C342.867 284.15 342.067 283.805 341.467 283.115C340.867 282.415 340.567 281.375 340.567 279.995C340.567 278.615 340.867 277.575 341.467 276.875C342.077 276.165 342.882 275.81 343.882 275.81C344.302 275.81 344.667 275.865 344.977 275.975C345.287 276.075 345.557 276.215 345.787 276.395C346.017 276.575 346.212 276.775 346.372 276.995H346.462C346.452 276.865 346.432 276.675 346.402 276.425C346.382 276.165 346.372 275.96 346.372 275.81V272.6H347.692V284H346.627L346.432 282.92H346.372C346.212 283.15 346.017 283.36 345.787 283.55C345.557 283.73 345.282 283.875 344.962 283.985C344.652 284.095 344.287 284.15 343.867 284.15ZM344.077 283.055C344.927 283.055 345.522 282.825 345.862 282.365C346.212 281.895 346.387 281.19 346.387 280.25V280.01C346.387 279.01 346.222 278.245 345.892 277.715C345.562 277.175 344.952 276.905 344.062 276.905C343.352 276.905 342.817 277.19 342.457 277.76C342.107 278.32 341.932 279.075 341.932 280.025C341.932 280.985 342.107 281.73 342.457 282.26C342.817 282.79 343.357 283.055 344.077 283.055Z" fill="black"/>
<defs>
<filter id="filter0_d_3_4" x="441" y="227" width="185" height="108" filterUnits="userSpaceOnUse" color-interpolation-filters="sRGB">
<feFlood flood-opacity="0" result="BackgroundImageFix"/>
<feColorMatrix in="SourceAlpha" type="matrix" values="0 0 0 0 0 0 0 0 0 0 0 0 0 0 0 0 0 0 127 0" result="hardAlpha"/>
<feOffset dy="4"/>
<feGaussianBlur stdDeviation="2"/>
<feComposite in2="hardAlpha" operator="out"/>
<feColorMatrix type="matrix" values="0 0 0 0 0 0 0 0 0 0 0 0 0 0 0 0 0 0 0.25 0"/>
<feBlend mode="normal" in2="BackgroundImageFix" result="effect1_dropShadow_3_4"/>
<feBlend mode="normal" in="SourceGraphic" in2="effect1_dropShadow_3_4" result="shape"/>
</filter>
<filter id="filter1_d_3_4" x="34" y="227" width="185" height="108" filterUnits="userSpaceOnUse" color-interpolation-filters="sRGB">
<feFlood flood-opacity="0" result="BackgroundImageFix"/>
<feColorMatrix in="SourceAlpha" type="matrix" values="0 0 0 0 0 0 0 0 0 0 0 0 0 0 0 0 0 0 127 0" result="hardAlpha"/>
<feOffset dy="4"/>
<feGaussianBlur stdDeviation="2"/>
<feComposite in2="hardAlpha" operator="out"/>
<feColorMatrix type="matrix" values="0 0 0 0 0 0 0 0 0 0 0 0 0 0 0 0 0 0 0.25 0"/>
<feBlend mode="normal" in2="BackgroundImageFix" result="effect1_dropShadow_3_4"/>
<feBlend mode="normal" in="SourceGraphic" in2="effect1_dropShadow_3_4" result="shape"/>
</filter>
</defs>
</svg>
